%TF.GenerationSoftware,KiCad,Pcbnew,7.0.9*%
%TF.CreationDate,2024-01-28T12:44:50+11:00*%
%TF.ProjectId,Camera-Wing-SHIM,43616d65-7261-42d5-9769-6e672d534849,rev?*%
%TF.SameCoordinates,Original*%
%TF.FileFunction,Legend,Bot*%
%TF.FilePolarity,Positive*%
%FSLAX46Y46*%
G04 Gerber Fmt 4.6, Leading zero omitted, Abs format (unit mm)*
G04 Created by KiCad (PCBNEW 7.0.9) date 2024-01-28 12:44:50*
%MOMM*%
%LPD*%
G01*
G04 APERTURE LIST*
%ADD10C,0.100000*%
%ADD11C,0.200000*%
G04 APERTURE END LIST*
D10*
X85637544Y-79628633D02*
X85637544Y-80195300D01*
X85637544Y-80195300D02*
X85604211Y-80261966D01*
X85604211Y-80261966D02*
X85570877Y-80295300D01*
X85570877Y-80295300D02*
X85504211Y-80328633D01*
X85504211Y-80328633D02*
X85370877Y-80328633D01*
X85370877Y-80328633D02*
X85304211Y-80295300D01*
X85304211Y-80295300D02*
X85270877Y-80261966D01*
X85270877Y-80261966D02*
X85237544Y-80195300D01*
X85237544Y-80195300D02*
X85237544Y-79628633D01*
X84937544Y-80295300D02*
X84837544Y-80328633D01*
X84837544Y-80328633D02*
X84670878Y-80328633D01*
X84670878Y-80328633D02*
X84604211Y-80295300D01*
X84604211Y-80295300D02*
X84570878Y-80261966D01*
X84570878Y-80261966D02*
X84537544Y-80195300D01*
X84537544Y-80195300D02*
X84537544Y-80128633D01*
X84537544Y-80128633D02*
X84570878Y-80061966D01*
X84570878Y-80061966D02*
X84604211Y-80028633D01*
X84604211Y-80028633D02*
X84670878Y-79995300D01*
X84670878Y-79995300D02*
X84804211Y-79961966D01*
X84804211Y-79961966D02*
X84870878Y-79928633D01*
X84870878Y-79928633D02*
X84904211Y-79895300D01*
X84904211Y-79895300D02*
X84937544Y-79828633D01*
X84937544Y-79828633D02*
X84937544Y-79761966D01*
X84937544Y-79761966D02*
X84904211Y-79695300D01*
X84904211Y-79695300D02*
X84870878Y-79661966D01*
X84870878Y-79661966D02*
X84804211Y-79628633D01*
X84804211Y-79628633D02*
X84637544Y-79628633D01*
X84637544Y-79628633D02*
X84537544Y-79661966D01*
X84004211Y-79961966D02*
X83904211Y-79995300D01*
X83904211Y-79995300D02*
X83870877Y-80028633D01*
X83870877Y-80028633D02*
X83837544Y-80095300D01*
X83837544Y-80095300D02*
X83837544Y-80195300D01*
X83837544Y-80195300D02*
X83870877Y-80261966D01*
X83870877Y-80261966D02*
X83904211Y-80295300D01*
X83904211Y-80295300D02*
X83970877Y-80328633D01*
X83970877Y-80328633D02*
X84237544Y-80328633D01*
X84237544Y-80328633D02*
X84237544Y-79628633D01*
X84237544Y-79628633D02*
X84004211Y-79628633D01*
X84004211Y-79628633D02*
X83937544Y-79661966D01*
X83937544Y-79661966D02*
X83904211Y-79695300D01*
X83904211Y-79695300D02*
X83870877Y-79761966D01*
X83870877Y-79761966D02*
X83870877Y-79828633D01*
X83870877Y-79828633D02*
X83904211Y-79895300D01*
X83904211Y-79895300D02*
X83937544Y-79928633D01*
X83937544Y-79928633D02*
X84004211Y-79961966D01*
X84004211Y-79961966D02*
X84237544Y-79961966D01*
X83537544Y-79861966D02*
X83004211Y-80061966D01*
X83004211Y-80061966D02*
X83537544Y-80261966D01*
D11*
X98148904Y-122935219D02*
X98148904Y-121935219D01*
X98148904Y-121935219D02*
X97815571Y-122649504D01*
X97815571Y-122649504D02*
X97482238Y-121935219D01*
X97482238Y-121935219D02*
X97482238Y-122935219D01*
X96625095Y-122887600D02*
X96720333Y-122935219D01*
X96720333Y-122935219D02*
X96910809Y-122935219D01*
X96910809Y-122935219D02*
X97006047Y-122887600D01*
X97006047Y-122887600D02*
X97053666Y-122792361D01*
X97053666Y-122792361D02*
X97053666Y-122411409D01*
X97053666Y-122411409D02*
X97006047Y-122316171D01*
X97006047Y-122316171D02*
X96910809Y-122268552D01*
X96910809Y-122268552D02*
X96720333Y-122268552D01*
X96720333Y-122268552D02*
X96625095Y-122316171D01*
X96625095Y-122316171D02*
X96577476Y-122411409D01*
X96577476Y-122411409D02*
X96577476Y-122506647D01*
X96577476Y-122506647D02*
X97053666Y-122601885D01*
X95720333Y-122268552D02*
X95720333Y-123078076D01*
X95720333Y-123078076D02*
X95767952Y-123173314D01*
X95767952Y-123173314D02*
X95815571Y-123220933D01*
X95815571Y-123220933D02*
X95910809Y-123268552D01*
X95910809Y-123268552D02*
X96053666Y-123268552D01*
X96053666Y-123268552D02*
X96148904Y-123220933D01*
X95720333Y-122887600D02*
X95815571Y-122935219D01*
X95815571Y-122935219D02*
X96006047Y-122935219D01*
X96006047Y-122935219D02*
X96101285Y-122887600D01*
X96101285Y-122887600D02*
X96148904Y-122839980D01*
X96148904Y-122839980D02*
X96196523Y-122744742D01*
X96196523Y-122744742D02*
X96196523Y-122459028D01*
X96196523Y-122459028D02*
X96148904Y-122363790D01*
X96148904Y-122363790D02*
X96101285Y-122316171D01*
X96101285Y-122316171D02*
X96006047Y-122268552D01*
X96006047Y-122268552D02*
X95815571Y-122268552D01*
X95815571Y-122268552D02*
X95720333Y-122316171D01*
X94815571Y-122935219D02*
X94815571Y-122411409D01*
X94815571Y-122411409D02*
X94863190Y-122316171D01*
X94863190Y-122316171D02*
X94958428Y-122268552D01*
X94958428Y-122268552D02*
X95148904Y-122268552D01*
X95148904Y-122268552D02*
X95244142Y-122316171D01*
X94815571Y-122887600D02*
X94910809Y-122935219D01*
X94910809Y-122935219D02*
X95148904Y-122935219D01*
X95148904Y-122935219D02*
X95244142Y-122887600D01*
X95244142Y-122887600D02*
X95291761Y-122792361D01*
X95291761Y-122792361D02*
X95291761Y-122697123D01*
X95291761Y-122697123D02*
X95244142Y-122601885D01*
X95244142Y-122601885D02*
X95148904Y-122554266D01*
X95148904Y-122554266D02*
X94910809Y-122554266D01*
X94910809Y-122554266D02*
X94815571Y-122506647D01*
X93625094Y-122887600D02*
X93482237Y-122935219D01*
X93482237Y-122935219D02*
X93244142Y-122935219D01*
X93244142Y-122935219D02*
X93148904Y-122887600D01*
X93148904Y-122887600D02*
X93101285Y-122839980D01*
X93101285Y-122839980D02*
X93053666Y-122744742D01*
X93053666Y-122744742D02*
X93053666Y-122649504D01*
X93053666Y-122649504D02*
X93101285Y-122554266D01*
X93101285Y-122554266D02*
X93148904Y-122506647D01*
X93148904Y-122506647D02*
X93244142Y-122459028D01*
X93244142Y-122459028D02*
X93434618Y-122411409D01*
X93434618Y-122411409D02*
X93529856Y-122363790D01*
X93529856Y-122363790D02*
X93577475Y-122316171D01*
X93577475Y-122316171D02*
X93625094Y-122220933D01*
X93625094Y-122220933D02*
X93625094Y-122125695D01*
X93625094Y-122125695D02*
X93577475Y-122030457D01*
X93577475Y-122030457D02*
X93529856Y-121982838D01*
X93529856Y-121982838D02*
X93434618Y-121935219D01*
X93434618Y-121935219D02*
X93196523Y-121935219D01*
X93196523Y-121935219D02*
X93053666Y-121982838D01*
X92625094Y-122935219D02*
X92625094Y-121935219D01*
X92625094Y-121935219D02*
X92244142Y-121935219D01*
X92244142Y-121935219D02*
X92148904Y-121982838D01*
X92148904Y-121982838D02*
X92101285Y-122030457D01*
X92101285Y-122030457D02*
X92053666Y-122125695D01*
X92053666Y-122125695D02*
X92053666Y-122268552D01*
X92053666Y-122268552D02*
X92101285Y-122363790D01*
X92101285Y-122363790D02*
X92148904Y-122411409D01*
X92148904Y-122411409D02*
X92244142Y-122459028D01*
X92244142Y-122459028D02*
X92625094Y-122459028D01*
X91625094Y-122935219D02*
X91625094Y-121935219D01*
X96887000Y-124449980D02*
X96934619Y-124497600D01*
X96934619Y-124497600D02*
X97077476Y-124545219D01*
X97077476Y-124545219D02*
X97172714Y-124545219D01*
X97172714Y-124545219D02*
X97315571Y-124497600D01*
X97315571Y-124497600D02*
X97410809Y-124402361D01*
X97410809Y-124402361D02*
X97458428Y-124307123D01*
X97458428Y-124307123D02*
X97506047Y-124116647D01*
X97506047Y-124116647D02*
X97506047Y-123973790D01*
X97506047Y-123973790D02*
X97458428Y-123783314D01*
X97458428Y-123783314D02*
X97410809Y-123688076D01*
X97410809Y-123688076D02*
X97315571Y-123592838D01*
X97315571Y-123592838D02*
X97172714Y-123545219D01*
X97172714Y-123545219D02*
X97077476Y-123545219D01*
X97077476Y-123545219D02*
X96934619Y-123592838D01*
X96934619Y-123592838D02*
X96887000Y-123640457D01*
X96029857Y-124545219D02*
X96029857Y-124021409D01*
X96029857Y-124021409D02*
X96077476Y-123926171D01*
X96077476Y-123926171D02*
X96172714Y-123878552D01*
X96172714Y-123878552D02*
X96363190Y-123878552D01*
X96363190Y-123878552D02*
X96458428Y-123926171D01*
X96029857Y-124497600D02*
X96125095Y-124545219D01*
X96125095Y-124545219D02*
X96363190Y-124545219D01*
X96363190Y-124545219D02*
X96458428Y-124497600D01*
X96458428Y-124497600D02*
X96506047Y-124402361D01*
X96506047Y-124402361D02*
X96506047Y-124307123D01*
X96506047Y-124307123D02*
X96458428Y-124211885D01*
X96458428Y-124211885D02*
X96363190Y-124164266D01*
X96363190Y-124164266D02*
X96125095Y-124164266D01*
X96125095Y-124164266D02*
X96029857Y-124116647D01*
X95553666Y-124545219D02*
X95553666Y-123878552D01*
X95553666Y-123973790D02*
X95506047Y-123926171D01*
X95506047Y-123926171D02*
X95410809Y-123878552D01*
X95410809Y-123878552D02*
X95267952Y-123878552D01*
X95267952Y-123878552D02*
X95172714Y-123926171D01*
X95172714Y-123926171D02*
X95125095Y-124021409D01*
X95125095Y-124021409D02*
X95125095Y-124545219D01*
X95125095Y-124021409D02*
X95077476Y-123926171D01*
X95077476Y-123926171D02*
X94982238Y-123878552D01*
X94982238Y-123878552D02*
X94839381Y-123878552D01*
X94839381Y-123878552D02*
X94744142Y-123926171D01*
X94744142Y-123926171D02*
X94696523Y-124021409D01*
X94696523Y-124021409D02*
X94696523Y-124545219D01*
X93839381Y-124497600D02*
X93934619Y-124545219D01*
X93934619Y-124545219D02*
X94125095Y-124545219D01*
X94125095Y-124545219D02*
X94220333Y-124497600D01*
X94220333Y-124497600D02*
X94267952Y-124402361D01*
X94267952Y-124402361D02*
X94267952Y-124021409D01*
X94267952Y-124021409D02*
X94220333Y-123926171D01*
X94220333Y-123926171D02*
X94125095Y-123878552D01*
X94125095Y-123878552D02*
X93934619Y-123878552D01*
X93934619Y-123878552D02*
X93839381Y-123926171D01*
X93839381Y-123926171D02*
X93791762Y-124021409D01*
X93791762Y-124021409D02*
X93791762Y-124116647D01*
X93791762Y-124116647D02*
X94267952Y-124211885D01*
X93363190Y-124545219D02*
X93363190Y-123878552D01*
X93363190Y-124069028D02*
X93315571Y-123973790D01*
X93315571Y-123973790D02*
X93267952Y-123926171D01*
X93267952Y-123926171D02*
X93172714Y-123878552D01*
X93172714Y-123878552D02*
X93077476Y-123878552D01*
X92315571Y-124545219D02*
X92315571Y-124021409D01*
X92315571Y-124021409D02*
X92363190Y-123926171D01*
X92363190Y-123926171D02*
X92458428Y-123878552D01*
X92458428Y-123878552D02*
X92648904Y-123878552D01*
X92648904Y-123878552D02*
X92744142Y-123926171D01*
X92315571Y-124497600D02*
X92410809Y-124545219D01*
X92410809Y-124545219D02*
X92648904Y-124545219D01*
X92648904Y-124545219D02*
X92744142Y-124497600D01*
X92744142Y-124497600D02*
X92791761Y-124402361D01*
X92791761Y-124402361D02*
X92791761Y-124307123D01*
X92791761Y-124307123D02*
X92744142Y-124211885D01*
X92744142Y-124211885D02*
X92648904Y-124164266D01*
X92648904Y-124164266D02*
X92410809Y-124164266D01*
X92410809Y-124164266D02*
X92315571Y-124116647D01*
%TO.C,G\u002A\u002A\u002A*%
G36*
X92972094Y-113443184D02*
G01*
X93118628Y-113452204D01*
X93219503Y-113471047D01*
X93282098Y-113502760D01*
X93313794Y-113550389D01*
X93321974Y-113616979D01*
X93314018Y-113705577D01*
X93305360Y-113764394D01*
X93290019Y-113848184D01*
X93277770Y-113891506D01*
X93262347Y-113895835D01*
X93191805Y-113901487D01*
X93072487Y-113905653D01*
X92913351Y-113908148D01*
X92723357Y-113908786D01*
X92511462Y-113907381D01*
X91759625Y-113898875D01*
X91749891Y-113814795D01*
X91732443Y-113758923D01*
X91676117Y-113713969D01*
X91668892Y-113711900D01*
X91626848Y-113679006D01*
X91622351Y-113607935D01*
X91629388Y-113567443D01*
X91648336Y-113537603D01*
X91691571Y-113517193D01*
X91771992Y-113500385D01*
X91902500Y-113481350D01*
X91939942Y-113476690D01*
X92087822Y-113463543D01*
X92272668Y-113452568D01*
X92474554Y-113444801D01*
X92673555Y-113441276D01*
X92772518Y-113440943D01*
X92972094Y-113443184D01*
G37*
G36*
X96307581Y-116828811D02*
G01*
X96310485Y-117029205D01*
X96281224Y-117267247D01*
X96212289Y-117460931D01*
X96102686Y-117614068D01*
X96036280Y-117675154D01*
X95959036Y-117715452D01*
X95861785Y-117727165D01*
X95845689Y-117727727D01*
X95725540Y-117743222D01*
X95617250Y-117772375D01*
X95533983Y-117792490D01*
X95401586Y-117807771D01*
X95242714Y-117816177D01*
X95075275Y-117817586D01*
X94917175Y-117811876D01*
X94786319Y-117798927D01*
X94700615Y-117778614D01*
X94636001Y-117742738D01*
X94547802Y-117680853D01*
X94453999Y-117606501D01*
X94369069Y-117531798D01*
X94307493Y-117468859D01*
X94283750Y-117429801D01*
X94278696Y-117414025D01*
X94244440Y-117356499D01*
X94188500Y-117280250D01*
X94175997Y-117264280D01*
X94131351Y-117198624D01*
X94106431Y-117133492D01*
X94095607Y-117047565D01*
X94093250Y-116919522D01*
X94093250Y-116912982D01*
X94317500Y-116912982D01*
X94336040Y-117006765D01*
X94410750Y-117121500D01*
X94442049Y-117162000D01*
X94487950Y-117226298D01*
X94506000Y-117259370D01*
X94506379Y-117263113D01*
X94536451Y-117310216D01*
X94604254Y-117376172D01*
X94695160Y-117448113D01*
X94794540Y-117513174D01*
X94806363Y-117519960D01*
X94907700Y-117567941D01*
X95009887Y-117590645D01*
X95143790Y-117595334D01*
X95240643Y-117590249D01*
X95365564Y-117573705D01*
X95458500Y-117550125D01*
X95469720Y-117546023D01*
X95583063Y-117517780D01*
X95700233Y-117504915D01*
X95785535Y-117493771D01*
X95891044Y-117438772D01*
X95974401Y-117332699D01*
X96041498Y-117169765D01*
X96075017Y-117019930D01*
X96077969Y-116823627D01*
X96034951Y-116645328D01*
X95949119Y-116496350D01*
X95823625Y-116388011D01*
X95806355Y-116378307D01*
X95681659Y-116333631D01*
X95578550Y-116343359D01*
X95503206Y-116407125D01*
X95496997Y-116416326D01*
X95453727Y-116460912D01*
X95391476Y-116482151D01*
X95288161Y-116488392D01*
X95225815Y-116489992D01*
X94945541Y-116523827D01*
X94696964Y-116603866D01*
X94466313Y-116734229D01*
X94455611Y-116741742D01*
X94356801Y-116828519D01*
X94317500Y-116912982D01*
X94093250Y-116912982D01*
X94093250Y-116679057D01*
X94272413Y-116543787D01*
X94277973Y-116539599D01*
X94423837Y-116439385D01*
X94560447Y-116370515D01*
X94712045Y-116323128D01*
X94902875Y-116287365D01*
X94906858Y-116286753D01*
X95021617Y-116263726D01*
X95111634Y-116236034D01*
X95157726Y-116209534D01*
X95166073Y-116200764D01*
X95228103Y-116165259D01*
X95316476Y-116136262D01*
X95319737Y-116135517D01*
X95421951Y-116119528D01*
X95545851Y-116110087D01*
X95674467Y-116107166D01*
X95790824Y-116110739D01*
X95877952Y-116120776D01*
X95918875Y-116137250D01*
X95935898Y-116152941D01*
X95994184Y-116169000D01*
X96044619Y-116186503D01*
X96118888Y-116247539D01*
X96192176Y-116337038D01*
X96249242Y-116438875D01*
X96257472Y-116462941D01*
X96277571Y-116557419D01*
X96295303Y-116686252D01*
X96307135Y-116823627D01*
X96307581Y-116828811D01*
G37*
G36*
X96686629Y-117417557D02*
G01*
X96663032Y-117598603D01*
X96618956Y-117747186D01*
X96549795Y-117878618D01*
X96450944Y-118008210D01*
X96347097Y-118116892D01*
X96239283Y-118198996D01*
X96108460Y-118265948D01*
X95934750Y-118330144D01*
X95924662Y-118333327D01*
X95804853Y-118358236D01*
X95643706Y-118376566D01*
X95458590Y-118387918D01*
X95266869Y-118391894D01*
X95085912Y-118388096D01*
X94933085Y-118376125D01*
X94825755Y-118355583D01*
X94732465Y-118325411D01*
X94433536Y-118218905D01*
X94182067Y-118113009D01*
X93981131Y-118009448D01*
X93833802Y-117909949D01*
X93743150Y-117816238D01*
X93712250Y-117730041D01*
X93708624Y-117699657D01*
X93682411Y-117643787D01*
X93679662Y-117640725D01*
X93650457Y-117577280D01*
X93621540Y-117465946D01*
X93595151Y-117320928D01*
X93573527Y-117156430D01*
X93558906Y-116986657D01*
X93553681Y-116830444D01*
X93775776Y-116830444D01*
X93775868Y-116840534D01*
X93783580Y-116948071D01*
X93801309Y-117078497D01*
X93825668Y-117214608D01*
X93853271Y-117339203D01*
X93880731Y-117435080D01*
X93904661Y-117485037D01*
X93917912Y-117503960D01*
X93934500Y-117568020D01*
X93938896Y-117599081D01*
X93990596Y-117681481D01*
X94101490Y-117768776D01*
X94272863Y-117861851D01*
X94506000Y-117961591D01*
X94545895Y-117977210D01*
X94649575Y-118017984D01*
X94728250Y-118049165D01*
X94751622Y-118058114D01*
X94844797Y-118090701D01*
X94950500Y-118124727D01*
X95086865Y-118151990D01*
X95268330Y-118165147D01*
X95462878Y-118162347D01*
X95645671Y-118144009D01*
X95791875Y-118110550D01*
X95937570Y-118047793D01*
X96088780Y-117959109D01*
X96219112Y-117860123D01*
X96308381Y-117764363D01*
X96364224Y-117671671D01*
X96446406Y-117448481D01*
X96474500Y-117201134D01*
X96468290Y-117070546D01*
X96445951Y-116885650D01*
X96411414Y-116695531D01*
X96368969Y-116523096D01*
X96322902Y-116391250D01*
X96273173Y-116282339D01*
X96203716Y-116145653D01*
X96140532Y-116051023D01*
X96073850Y-115987584D01*
X95993902Y-115944471D01*
X95890918Y-115910819D01*
X95819168Y-115899061D01*
X95682254Y-115893774D01*
X95514632Y-115898972D01*
X95334253Y-115913147D01*
X95159069Y-115934789D01*
X95007032Y-115962390D01*
X94896095Y-115994440D01*
X94834398Y-116016659D01*
X94715805Y-116037542D01*
X94638683Y-116011938D01*
X94601455Y-115939554D01*
X94585375Y-115852984D01*
X94442500Y-115923679D01*
X94401436Y-115946318D01*
X94274155Y-116037274D01*
X94138629Y-116157623D01*
X94010382Y-116291606D01*
X93904941Y-116423465D01*
X93837829Y-116537440D01*
X93823666Y-116574399D01*
X93789451Y-116705944D01*
X93775776Y-116830444D01*
X93553681Y-116830444D01*
X93553526Y-116825813D01*
X93554001Y-116740172D01*
X93559051Y-116611102D01*
X93572541Y-116514797D01*
X93598034Y-116430998D01*
X93639093Y-116339450D01*
X93661783Y-116296394D01*
X93786578Y-116119028D01*
X93950532Y-115950333D01*
X94138098Y-115802937D01*
X94333728Y-115689465D01*
X94521875Y-115622543D01*
X94529715Y-115620816D01*
X94653927Y-115593181D01*
X94775875Y-115565681D01*
X94780149Y-115564756D01*
X94864761Y-115553730D01*
X94994618Y-115544535D01*
X95152812Y-115538106D01*
X95322436Y-115535382D01*
X95458275Y-115535364D01*
X95593672Y-115537838D01*
X95690012Y-115544939D01*
X95761242Y-115558604D01*
X95821312Y-115580770D01*
X95884172Y-115613375D01*
X95935711Y-115640625D01*
X96018912Y-115678064D01*
X96071034Y-115692750D01*
X96094221Y-115698486D01*
X96162644Y-115732744D01*
X96246692Y-115787623D01*
X96271057Y-115806570D01*
X96390184Y-115940107D01*
X96493709Y-116125162D01*
X96578756Y-116352671D01*
X96642452Y-116613569D01*
X96681921Y-116898789D01*
X96694290Y-117199266D01*
X96694224Y-117201134D01*
X96686629Y-117417557D01*
G37*
G36*
X94294732Y-114093529D02*
G01*
X94324900Y-114111411D01*
X94381429Y-114126603D01*
X94473513Y-114141474D01*
X94610347Y-114158391D01*
X94801123Y-114179722D01*
X94887501Y-114189259D01*
X95085511Y-114211250D01*
X95274279Y-114232375D01*
X95435846Y-114250622D01*
X95552250Y-114263973D01*
X95571328Y-114266148D01*
X95684910Y-114277005D01*
X95769864Y-114281656D01*
X95809020Y-114279090D01*
X95814500Y-114258922D01*
X95811735Y-114190932D01*
X95808296Y-114166876D01*
X96061750Y-114166876D01*
X96068538Y-114235102D01*
X96085563Y-114271141D01*
X96086291Y-114271424D01*
X96130443Y-114274170D01*
X96223714Y-114272747D01*
X96352647Y-114267889D01*
X96503786Y-114260333D01*
X96663673Y-114250813D01*
X96818853Y-114240065D01*
X96955868Y-114228823D01*
X97061262Y-114217825D01*
X97135414Y-114207527D01*
X97202337Y-114191078D01*
X97229339Y-114166605D01*
X97230441Y-114126543D01*
X97227727Y-114105412D01*
X97221619Y-114087511D01*
X97204897Y-114074513D01*
X97170007Y-114065833D01*
X97109394Y-114060885D01*
X97015504Y-114059083D01*
X96880782Y-114059842D01*
X96697674Y-114062574D01*
X96458625Y-114066696D01*
X96061750Y-114073500D01*
X96061750Y-114166876D01*
X95808296Y-114166876D01*
X95797887Y-114094078D01*
X95787091Y-114024015D01*
X95779282Y-113932185D01*
X95783149Y-113878446D01*
X95796186Y-113866442D01*
X95834401Y-113855561D01*
X95903693Y-113847406D01*
X96010544Y-113841642D01*
X96161437Y-113837938D01*
X96362855Y-113835960D01*
X96621282Y-113835375D01*
X97442875Y-113835375D01*
X97452472Y-114002062D01*
X97458517Y-114077285D01*
X97472002Y-114126543D01*
X97474021Y-114133917D01*
X97508897Y-114163075D01*
X97573747Y-114167959D01*
X97679173Y-114151767D01*
X97835777Y-114117697D01*
X97845075Y-114115621D01*
X97961612Y-114093544D01*
X98055927Y-114082371D01*
X98108366Y-114084498D01*
X98115919Y-114088811D01*
X98129738Y-114110777D01*
X98138937Y-114156062D01*
X98143865Y-114232690D01*
X98144871Y-114348684D01*
X98142306Y-114512067D01*
X98136517Y-114730862D01*
X98131255Y-114937100D01*
X98128994Y-115125256D01*
X98131232Y-115271625D01*
X98138420Y-115387771D01*
X98151008Y-115485260D01*
X98169448Y-115575657D01*
X98193051Y-115690725D01*
X98213060Y-115825009D01*
X98220751Y-115929825D01*
X98221967Y-115974207D01*
X98230630Y-116102012D01*
X98246834Y-116279445D01*
X98269652Y-116497834D01*
X98298156Y-116748505D01*
X98331419Y-117022785D01*
X98368514Y-117312000D01*
X98381363Y-117421255D01*
X98394683Y-117573389D01*
X98405137Y-117749512D01*
X98413006Y-117957523D01*
X98418577Y-118205322D01*
X98422134Y-118500806D01*
X98423961Y-118851875D01*
X98427125Y-119994875D01*
X98331875Y-119994875D01*
X98236625Y-119994875D01*
X98216239Y-118915375D01*
X98213830Y-118796342D01*
X98204458Y-118439043D01*
X98192764Y-118122035D01*
X98179028Y-117851117D01*
X98163528Y-117632089D01*
X98146545Y-117470750D01*
X98139719Y-117418944D01*
X98117233Y-117235874D01*
X98092528Y-117020171D01*
X98068155Y-116794556D01*
X98046668Y-116581750D01*
X98037001Y-116484198D01*
X98016128Y-116287340D01*
X97994856Y-116102166D01*
X97975200Y-115945865D01*
X97959175Y-115835625D01*
X97947541Y-115742848D01*
X97934683Y-115593933D01*
X97922635Y-115409960D01*
X97912357Y-115205787D01*
X97904814Y-114996275D01*
X97887375Y-114379175D01*
X97686102Y-114387449D01*
X97597106Y-114392691D01*
X97447948Y-114406416D01*
X97320977Y-114423387D01*
X97307976Y-114425400D01*
X97214187Y-114436151D01*
X97072125Y-114448904D01*
X96894192Y-114462686D01*
X96692790Y-114476520D01*
X96480318Y-114489435D01*
X96272659Y-114500573D01*
X96087458Y-114508277D01*
X95921915Y-114511483D01*
X95764229Y-114509643D01*
X95602599Y-114502204D01*
X95425225Y-114488616D01*
X95220305Y-114468328D01*
X94976039Y-114440791D01*
X94680625Y-114405452D01*
X94584052Y-114394674D01*
X94390611Y-114376242D01*
X94167131Y-114357783D01*
X93934161Y-114340954D01*
X93712250Y-114327410D01*
X93562640Y-114318845D01*
X93345330Y-114304999D01*
X93137722Y-114290297D01*
X92957726Y-114276029D01*
X92823250Y-114263480D01*
X92757099Y-114257678D01*
X92606352Y-114248521D01*
X92413382Y-114240092D01*
X92191353Y-114232861D01*
X91953428Y-114227297D01*
X91712772Y-114223870D01*
X90903919Y-114216375D01*
X90857079Y-114581500D01*
X90851612Y-114633408D01*
X90841800Y-114780316D01*
X90833319Y-114980462D01*
X90826189Y-115227043D01*
X90820432Y-115513255D01*
X90816068Y-115832295D01*
X90813120Y-116177357D01*
X90811608Y-116541640D01*
X90811555Y-116918338D01*
X90812980Y-117300648D01*
X90815907Y-117681767D01*
X90820355Y-118054890D01*
X90826346Y-118413214D01*
X90833902Y-118749935D01*
X90843044Y-119058250D01*
X90870625Y-119867875D01*
X91553250Y-119866652D01*
X91606532Y-119866447D01*
X91808381Y-119864444D01*
X92058855Y-119860555D01*
X92346759Y-119855023D01*
X92660896Y-119848090D01*
X92990071Y-119839999D01*
X93323088Y-119830991D01*
X93648750Y-119821310D01*
X93796843Y-119816735D01*
X94131937Y-119806933D01*
X94415388Y-119799724D01*
X94655666Y-119795113D01*
X94861237Y-119793103D01*
X95040569Y-119793699D01*
X95202131Y-119796903D01*
X95354391Y-119802720D01*
X95505817Y-119811153D01*
X95664875Y-119822207D01*
X95812750Y-119832697D01*
X96237365Y-119855355D01*
X96611348Y-119862358D01*
X96943062Y-119853325D01*
X97240866Y-119827874D01*
X97513121Y-119785624D01*
X97768189Y-119726192D01*
X97781605Y-119722540D01*
X97932635Y-119685566D01*
X98033399Y-119672742D01*
X98092447Y-119685774D01*
X98118328Y-119726365D01*
X98119591Y-119796219D01*
X98113521Y-119840633D01*
X98096326Y-119877985D01*
X98056168Y-119906156D01*
X97980212Y-119933522D01*
X97855625Y-119968457D01*
X97845484Y-119971170D01*
X97693781Y-120005447D01*
X97538280Y-120031209D01*
X97411125Y-120043060D01*
X97326946Y-120047737D01*
X97216569Y-120060007D01*
X97141250Y-120075813D01*
X97103444Y-120083069D01*
X97000491Y-120090439D01*
X96850835Y-120093806D01*
X96664459Y-120093381D01*
X96451345Y-120089376D01*
X96221474Y-120082001D01*
X95984828Y-120071468D01*
X95751389Y-120057988D01*
X95531139Y-120041771D01*
X95470825Y-120036981D01*
X95331544Y-120027931D01*
X95185877Y-120021719D01*
X95025674Y-120018360D01*
X94842785Y-120017868D01*
X94629061Y-120020255D01*
X94376354Y-120025537D01*
X94076513Y-120033726D01*
X93721389Y-120044836D01*
X93417363Y-120054097D01*
X93067050Y-120063431D01*
X92709505Y-120071741D01*
X92358866Y-120078746D01*
X92029269Y-120084165D01*
X91734851Y-120087717D01*
X91489750Y-120089123D01*
X90584875Y-120090125D01*
X90600308Y-119931375D01*
X90604553Y-119857787D01*
X90607971Y-119728724D01*
X90609960Y-119561981D01*
X90610366Y-119371037D01*
X90609035Y-119169375D01*
X90602913Y-118612230D01*
X90596848Y-118042757D01*
X90591649Y-117531068D01*
X90587309Y-117074139D01*
X90583821Y-116668947D01*
X90581180Y-116312470D01*
X90579379Y-116001683D01*
X90578413Y-115733564D01*
X90578274Y-115505090D01*
X90578956Y-115313237D01*
X90580454Y-115154983D01*
X90582761Y-115027304D01*
X90585871Y-114927176D01*
X90589778Y-114851578D01*
X90594475Y-114797485D01*
X90599956Y-114761874D01*
X90604948Y-114736602D01*
X90623188Y-114616600D01*
X90640327Y-114467191D01*
X90653215Y-114314813D01*
X90660882Y-114210609D01*
X90673059Y-114105555D01*
X90691057Y-114036310D01*
X90719661Y-113986651D01*
X90745318Y-113959651D01*
X91108750Y-113959651D01*
X91133271Y-113962669D01*
X91213425Y-113967165D01*
X91341180Y-113972545D01*
X91508162Y-113978491D01*
X91705997Y-113984684D01*
X91926313Y-113990803D01*
X92095363Y-113995687D01*
X92326325Y-114003809D01*
X92540577Y-114012939D01*
X92726424Y-114022512D01*
X92872171Y-114031969D01*
X92966125Y-114040747D01*
X93122115Y-114058558D01*
X93292672Y-114073885D01*
X93458357Y-114085199D01*
X93607513Y-114091977D01*
X93728485Y-114093697D01*
X93809616Y-114089837D01*
X93839250Y-114079874D01*
X93821013Y-114044199D01*
X93771882Y-113991108D01*
X93746767Y-113966226D01*
X93679159Y-113889538D01*
X93598451Y-113790370D01*
X93518360Y-113686299D01*
X93452605Y-113594900D01*
X93414906Y-113533750D01*
X93388651Y-113482285D01*
X93315949Y-113366394D01*
X93210494Y-113228048D01*
X93105612Y-113098258D01*
X92527869Y-113081268D01*
X92440690Y-113078849D01*
X92238287Y-113075011D01*
X92086614Y-113075689D01*
X91976381Y-113081252D01*
X91898294Y-113092070D01*
X91843061Y-113108514D01*
X91839635Y-113109911D01*
X91739162Y-113140214D01*
X91646690Y-113152749D01*
X91599153Y-113153901D01*
X91501685Y-113171194D01*
X91431960Y-113217987D01*
X91377785Y-113305408D01*
X91326970Y-113444584D01*
X91280695Y-113578812D01*
X91228103Y-113712029D01*
X91181288Y-113813242D01*
X91156786Y-113859967D01*
X91122293Y-113928465D01*
X91108750Y-113959651D01*
X90745318Y-113959651D01*
X90763657Y-113940352D01*
X90781328Y-113923341D01*
X90833684Y-113866605D01*
X90854750Y-113832738D01*
X90861764Y-113812634D01*
X90894077Y-113749767D01*
X90943772Y-113664261D01*
X90992867Y-113571961D01*
X91053205Y-113435806D01*
X91103728Y-113299221D01*
X91131238Y-113215274D01*
X91173496Y-113097783D01*
X91211038Y-113023568D01*
X91252991Y-112981261D01*
X91308484Y-112959496D01*
X91386646Y-112946904D01*
X91427514Y-112940901D01*
X91564295Y-112914006D01*
X91694088Y-112880743D01*
X91718817Y-112873872D01*
X91787095Y-112860201D01*
X91872678Y-112851117D01*
X91984787Y-112846352D01*
X92132645Y-112845641D01*
X92325476Y-112848715D01*
X92572500Y-112855308D01*
X93294201Y-112876823D01*
X93400038Y-113020565D01*
X93429784Y-113061113D01*
X93532231Y-113204348D01*
X93600142Y-113306726D01*
X93638051Y-113375000D01*
X93652660Y-113401416D01*
X93706146Y-113480256D01*
X93781543Y-113581007D01*
X93865551Y-113686692D01*
X93944869Y-113780331D01*
X94006198Y-113844948D01*
X94086304Y-113902317D01*
X94176413Y-113942296D01*
X94246059Y-113976511D01*
X94277248Y-114044804D01*
X94281732Y-114070589D01*
X94286994Y-114079874D01*
X94294732Y-114093529D01*
G37*
%TD*%
M02*
