%TF.GenerationSoftware,KiCad,Pcbnew,7.0.9*%
%TF.CreationDate,2024-01-28T12:44:50+11:00*%
%TF.ProjectId,Camera-Wing-SHIM,43616d65-7261-42d5-9769-6e672d534849,rev?*%
%TF.SameCoordinates,Original*%
%TF.FileFunction,Copper,L2,Bot*%
%TF.FilePolarity,Positive*%
%FSLAX46Y46*%
G04 Gerber Fmt 4.6, Leading zero omitted, Abs format (unit mm)*
G04 Created by KiCad (PCBNEW 7.0.9) date 2024-01-28 12:44:50*
%MOMM*%
%LPD*%
G01*
G04 APERTURE LIST*
%TA.AperFunction,ComponentPad*%
%ADD10R,1.700000X1.700000*%
%TD*%
%TA.AperFunction,ComponentPad*%
%ADD11O,1.700000X1.700000*%
%TD*%
%TA.AperFunction,ComponentPad*%
%ADD12O,1.600000X2.400000*%
%TD*%
%TA.AperFunction,Conductor*%
%ADD13C,0.250000*%
%TD*%
G04 APERTURE END LIST*
D10*
%TO.P,J3,1,Pin_1*%
%TO.N,+3V3*%
X87775000Y-112994000D03*
D11*
%TO.P,J3,2,Pin_2*%
%TO.N,GND*%
X87775000Y-115534000D03*
%TO.P,J3,3,Pin_3*%
%TO.N,/CLK*%
X87775000Y-118074000D03*
%TO.P,J3,4,Pin_4*%
%TO.N,/MISO*%
X87775000Y-120614000D03*
%TO.P,J3,5,Pin_5*%
%TO.N,/MOSI*%
X87775000Y-123154000D03*
%TO.P,J3,6,Pin_6*%
%TO.N,/CS*%
X87775000Y-125694000D03*
%TD*%
%TO.P,J1,1,Pin_1*%
%TO.N,unconnected-(J1-Pin_1-Pad1)*%
X81315000Y-80010000D03*
D12*
%TO.P,J1,2,Pin_2*%
%TO.N,unconnected-(J1-Pin_2-Pad2)*%
X81665000Y-82550000D03*
%TO.P,J1,3,Pin_3*%
%TO.N,GND*%
X80965000Y-85090000D03*
D11*
%TO.P,J1,4,Pin_4*%
%TO.N,unconnected-(J1-Pin_4-Pad4)*%
X81315000Y-87630000D03*
D12*
%TO.P,J1,5,Pin_5*%
%TO.N,+3V3*%
X81665000Y-90170000D03*
D11*
%TO.P,J1,6,Pin_6*%
%TO.N,unconnected-(J1-Pin_6-Pad6)*%
X81315000Y-92710000D03*
D12*
%TO.P,J1,7,Pin_7*%
%TO.N,unconnected-(J1-Pin_7-Pad7)*%
X81665000Y-95250000D03*
D10*
%TO.P,J1,8,Pin_8*%
%TO.N,unconnected-(J1-Pin_8-Pad8)*%
X81315000Y-97790000D03*
D11*
%TO.P,J1,9,Pin_9*%
%TO.N,unconnected-(J1-Pin_9-Pad9)*%
X81315000Y-100330000D03*
%TO.P,J1,10,Pin_10*%
%TO.N,unconnected-(J1-Pin_10-Pad10)*%
X81315000Y-102870000D03*
%TO.P,J1,11,Pin_11*%
%TO.N,unconnected-(J1-Pin_11-Pad11)*%
X81315000Y-105410000D03*
%TO.P,J1,12,Pin_12*%
%TO.N,unconnected-(J1-Pin_12-Pad12)*%
X81315000Y-107950000D03*
D12*
%TO.P,J1,13,Pin_13*%
%TO.N,unconnected-(J1-Pin_13-Pad13)*%
X81665000Y-110490000D03*
D11*
%TO.P,J1,14,Pin_14*%
%TO.N,unconnected-(J1-Pin_14-Pad14)*%
X81315000Y-113030000D03*
%TO.P,J1,15,Pin_15*%
%TO.N,unconnected-(J1-Pin_15-Pad15)*%
X81315000Y-115570000D03*
D12*
%TO.P,J1,16,Pin_16*%
%TO.N,/MOSI*%
X81315000Y-118110000D03*
%TO.P,J1,17,Pin_17*%
%TO.N,/CLK*%
X82015000Y-120650000D03*
%TO.P,J1,18,Pin_18*%
%TO.N,GND*%
X81665000Y-123190000D03*
%TO.P,J1,19,Pin_19*%
%TO.N,/CS*%
X81315000Y-125730000D03*
%TO.P,J1,20,Pin_20*%
%TO.N,/MISO*%
X82015000Y-128270000D03*
%TD*%
D13*
%TO.N,/MOSI*%
X81315000Y-118110000D02*
X82731000Y-118110000D01*
X82731000Y-118110000D02*
X87775000Y-123154000D01*
%TO.N,/CS*%
X81351000Y-125694000D02*
X81315000Y-125730000D01*
X87775000Y-125694000D02*
X81351000Y-125694000D01*
%TD*%
%TA.AperFunction,Conductor*%
%TO.N,GND*%
G36*
X85073139Y-78105501D02*
G01*
X85122561Y-78105501D01*
X85127425Y-78105691D01*
X85181976Y-78109985D01*
X85322578Y-78122286D01*
X85340695Y-78125236D01*
X85421019Y-78144521D01*
X85531718Y-78174183D01*
X85539398Y-78176790D01*
X85625972Y-78212650D01*
X85724964Y-78258811D01*
X85731148Y-78262134D01*
X85811769Y-78311539D01*
X85814927Y-78313610D01*
X85901589Y-78374291D01*
X85906296Y-78377935D01*
X85978837Y-78439891D01*
X85982413Y-78443197D01*
X86056801Y-78517585D01*
X86060107Y-78521161D01*
X86122063Y-78593702D01*
X86125707Y-78598409D01*
X86186388Y-78685071D01*
X86188465Y-78688238D01*
X86237862Y-78768847D01*
X86241192Y-78775045D01*
X86287354Y-78874037D01*
X86323205Y-78960592D01*
X86325815Y-78968279D01*
X86355484Y-79079003D01*
X86374759Y-79159291D01*
X86377713Y-79177430D01*
X86390019Y-79318084D01*
X86394308Y-79372576D01*
X86394499Y-79377442D01*
X86394501Y-107949499D01*
X86394501Y-108049994D01*
X86425784Y-108247509D01*
X86487583Y-108437706D01*
X86578371Y-108615887D01*
X86695917Y-108777675D01*
X86837325Y-108919083D01*
X86999113Y-109036629D01*
X87083299Y-109079523D01*
X87177293Y-109127416D01*
X87177295Y-109127416D01*
X87177298Y-109127418D01*
X87367491Y-109189216D01*
X87480180Y-109207063D01*
X87565006Y-109220499D01*
X87664902Y-109220499D01*
X100423139Y-109220499D01*
X100423143Y-109220501D01*
X100472560Y-109220501D01*
X100477426Y-109220692D01*
X100531947Y-109224983D01*
X100540720Y-109225750D01*
X100672574Y-109237285D01*
X100690684Y-109240234D01*
X100771041Y-109259526D01*
X100881711Y-109289180D01*
X100889387Y-109291784D01*
X100975989Y-109327656D01*
X101074953Y-109373805D01*
X101081135Y-109377126D01*
X101161795Y-109426554D01*
X101164909Y-109428595D01*
X101215741Y-109464188D01*
X101251593Y-109489293D01*
X101256295Y-109492934D01*
X101328846Y-109554898D01*
X101332410Y-109558193D01*
X101406806Y-109632589D01*
X101410104Y-109636156D01*
X101432455Y-109662326D01*
X101472062Y-109708700D01*
X101475707Y-109713406D01*
X101536375Y-109800050D01*
X101538452Y-109803217D01*
X101587869Y-109883860D01*
X101591199Y-109890057D01*
X101637350Y-109989027D01*
X101673208Y-110075598D01*
X101675818Y-110083285D01*
X101705485Y-110194003D01*
X101724760Y-110274290D01*
X101727714Y-110292429D01*
X101740013Y-110433003D01*
X101744309Y-110487584D01*
X101744500Y-110492450D01*
X101744500Y-128902556D01*
X101744309Y-128907423D01*
X101740022Y-128961886D01*
X101727713Y-129102574D01*
X101724759Y-129120712D01*
X101705494Y-129200960D01*
X101675815Y-129311721D01*
X101673206Y-129319408D01*
X101637363Y-129405942D01*
X101591191Y-129504957D01*
X101587861Y-129511155D01*
X101538470Y-129591754D01*
X101536393Y-129594921D01*
X101475699Y-129681602D01*
X101472055Y-129686308D01*
X101410130Y-129758813D01*
X101406824Y-129762389D01*
X101332394Y-129836819D01*
X101328818Y-129840125D01*
X101256309Y-129902053D01*
X101251603Y-129905698D01*
X101164918Y-129966395D01*
X101161751Y-129968472D01*
X101081162Y-130017857D01*
X101074964Y-130021187D01*
X100975931Y-130067368D01*
X100889412Y-130103205D01*
X100881724Y-130105814D01*
X100770958Y-130135494D01*
X100690713Y-130154759D01*
X100672573Y-130157713D01*
X100531801Y-130170029D01*
X100477439Y-130174308D01*
X100472572Y-130174499D01*
X82366755Y-130174499D01*
X82299716Y-130154814D01*
X82253961Y-130102010D01*
X82244017Y-130032852D01*
X82273042Y-129969296D01*
X82331820Y-129931522D01*
X82334662Y-129930724D01*
X82441626Y-129902063D01*
X82461496Y-129896739D01*
X82667734Y-129800568D01*
X82854139Y-129670047D01*
X83015047Y-129509139D01*
X83145568Y-129322734D01*
X83241739Y-129116496D01*
X83300635Y-128896692D01*
X83315500Y-128726784D01*
X83315500Y-127813216D01*
X83300635Y-127643308D01*
X83241739Y-127423504D01*
X83145568Y-127217266D01*
X83015047Y-127030861D01*
X83015045Y-127030858D01*
X82854141Y-126869954D01*
X82667735Y-126739433D01*
X82667736Y-126739433D01*
X82667734Y-126739432D01*
X82611221Y-126713079D01*
X82558783Y-126666907D01*
X82539632Y-126599713D01*
X82543852Y-126568608D01*
X82585974Y-126411404D01*
X82622339Y-126351746D01*
X82685186Y-126321217D01*
X82705749Y-126319500D01*
X86499773Y-126319500D01*
X86566812Y-126339185D01*
X86601348Y-126372377D01*
X86736500Y-126565395D01*
X86736505Y-126565401D01*
X86903599Y-126732495D01*
X86975345Y-126782732D01*
X87097165Y-126868032D01*
X87097167Y-126868033D01*
X87097170Y-126868035D01*
X87311337Y-126967903D01*
X87311343Y-126967904D01*
X87311344Y-126967905D01*
X87315957Y-126969141D01*
X87539592Y-127029063D01*
X87727918Y-127045539D01*
X87774999Y-127049659D01*
X87775000Y-127049659D01*
X87775001Y-127049659D01*
X87814234Y-127046226D01*
X88010408Y-127029063D01*
X88238663Y-126967903D01*
X88452830Y-126868035D01*
X88646401Y-126732495D01*
X88813495Y-126565401D01*
X88949035Y-126371830D01*
X89048903Y-126157663D01*
X89110063Y-125929408D01*
X89130659Y-125694000D01*
X89110063Y-125458592D01*
X89048903Y-125230337D01*
X88949035Y-125016171D01*
X88948652Y-125015623D01*
X88813494Y-124822597D01*
X88646402Y-124655506D01*
X88646396Y-124655501D01*
X88460842Y-124525575D01*
X88417217Y-124470998D01*
X88410023Y-124401500D01*
X88441546Y-124339145D01*
X88460842Y-124322425D01*
X88575012Y-124242482D01*
X88646401Y-124192495D01*
X88813495Y-124025401D01*
X88949035Y-123831830D01*
X89048903Y-123617663D01*
X89110063Y-123389408D01*
X89130659Y-123154000D01*
X89110063Y-122918592D01*
X89048903Y-122690337D01*
X88949035Y-122476171D01*
X88923455Y-122439638D01*
X88813494Y-122282597D01*
X88646402Y-122115506D01*
X88646396Y-122115501D01*
X88460842Y-121985575D01*
X88417217Y-121930998D01*
X88410023Y-121861500D01*
X88441546Y-121799145D01*
X88460842Y-121782425D01*
X88483026Y-121766891D01*
X88646401Y-121652495D01*
X88813495Y-121485401D01*
X88949035Y-121291830D01*
X89048903Y-121077663D01*
X89110063Y-120849408D01*
X89130659Y-120614000D01*
X89110063Y-120378592D01*
X89048903Y-120150337D01*
X88949035Y-119936171D01*
X88813495Y-119742599D01*
X88813494Y-119742597D01*
X88646402Y-119575506D01*
X88646396Y-119575501D01*
X88460842Y-119445575D01*
X88417217Y-119390998D01*
X88410023Y-119321500D01*
X88441546Y-119259145D01*
X88460842Y-119242425D01*
X88574655Y-119162732D01*
X88646401Y-119112495D01*
X88813495Y-118945401D01*
X88949035Y-118751830D01*
X89048903Y-118537663D01*
X89110063Y-118309408D01*
X89130659Y-118074000D01*
X89110063Y-117838592D01*
X89055679Y-117635625D01*
X89048905Y-117610344D01*
X89048904Y-117610343D01*
X89048903Y-117610337D01*
X88949035Y-117396171D01*
X88946501Y-117392551D01*
X88813494Y-117202597D01*
X88646402Y-117035506D01*
X88646401Y-117035505D01*
X88460405Y-116905269D01*
X88416781Y-116850692D01*
X88409588Y-116781193D01*
X88441110Y-116718839D01*
X88460405Y-116702119D01*
X88646082Y-116572105D01*
X88813105Y-116405082D01*
X88948600Y-116211578D01*
X89048429Y-115997492D01*
X89048432Y-115997486D01*
X89105636Y-115784000D01*
X88208686Y-115784000D01*
X88234493Y-115743844D01*
X88275000Y-115605889D01*
X88275000Y-115462111D01*
X88234493Y-115324156D01*
X88208686Y-115284000D01*
X89105636Y-115284000D01*
X89105635Y-115283999D01*
X89048432Y-115070513D01*
X89048429Y-115070507D01*
X88948600Y-114856422D01*
X88948599Y-114856420D01*
X88813113Y-114662926D01*
X88813108Y-114662920D01*
X88691053Y-114540865D01*
X88657568Y-114479542D01*
X88662552Y-114409850D01*
X88704424Y-114353917D01*
X88735400Y-114337002D01*
X88867331Y-114287796D01*
X88982546Y-114201546D01*
X89068796Y-114086331D01*
X89119091Y-113951483D01*
X89125500Y-113891873D01*
X89125499Y-112096128D01*
X89119091Y-112036517D01*
X89113142Y-112020568D01*
X89068797Y-111901671D01*
X89068793Y-111901664D01*
X88982547Y-111786455D01*
X88982544Y-111786452D01*
X88867335Y-111700206D01*
X88867328Y-111700202D01*
X88732482Y-111649908D01*
X88732483Y-111649908D01*
X88672883Y-111643501D01*
X88672881Y-111643500D01*
X88672873Y-111643500D01*
X88672864Y-111643500D01*
X86877129Y-111643500D01*
X86877123Y-111643501D01*
X86817516Y-111649908D01*
X86682671Y-111700202D01*
X86682664Y-111700206D01*
X86567455Y-111786452D01*
X86567452Y-111786455D01*
X86481206Y-111901664D01*
X86481202Y-111901671D01*
X86430908Y-112036517D01*
X86424501Y-112096116D01*
X86424501Y-112096123D01*
X86424500Y-112096135D01*
X86424500Y-113891870D01*
X86424501Y-113891876D01*
X86430908Y-113951483D01*
X86481202Y-114086328D01*
X86481206Y-114086335D01*
X86567452Y-114201544D01*
X86567455Y-114201547D01*
X86682664Y-114287793D01*
X86682671Y-114287797D01*
X86744902Y-114311007D01*
X86814598Y-114337002D01*
X86870531Y-114378873D01*
X86894949Y-114444337D01*
X86880098Y-114512610D01*
X86858947Y-114540865D01*
X86736886Y-114662926D01*
X86601400Y-114856420D01*
X86601399Y-114856422D01*
X86501570Y-115070507D01*
X86501567Y-115070513D01*
X86444364Y-115283999D01*
X86444364Y-115284000D01*
X87341314Y-115284000D01*
X87315507Y-115324156D01*
X87275000Y-115462111D01*
X87275000Y-115605889D01*
X87315507Y-115743844D01*
X87341314Y-115784000D01*
X86444364Y-115784000D01*
X86501567Y-115997486D01*
X86501570Y-115997492D01*
X86601399Y-116211578D01*
X86736894Y-116405082D01*
X86903917Y-116572105D01*
X87089595Y-116702119D01*
X87133219Y-116756696D01*
X87140412Y-116826195D01*
X87108890Y-116888549D01*
X87089595Y-116905269D01*
X86903594Y-117035508D01*
X86736505Y-117202597D01*
X86600965Y-117396169D01*
X86600964Y-117396171D01*
X86501098Y-117610335D01*
X86501094Y-117610344D01*
X86439938Y-117838586D01*
X86439936Y-117838596D01*
X86419341Y-118073999D01*
X86419341Y-118074000D01*
X86439936Y-118309403D01*
X86439938Y-118309413D01*
X86501094Y-118537655D01*
X86501096Y-118537659D01*
X86501097Y-118537663D01*
X86593904Y-118736687D01*
X86600965Y-118751830D01*
X86600967Y-118751834D01*
X86736501Y-118945395D01*
X86736506Y-118945402D01*
X86903597Y-119112493D01*
X86903603Y-119112498D01*
X87089158Y-119242425D01*
X87132783Y-119297002D01*
X87139977Y-119366500D01*
X87108454Y-119428855D01*
X87089158Y-119445575D01*
X86903597Y-119575505D01*
X86736505Y-119742597D01*
X86600965Y-119936169D01*
X86600964Y-119936171D01*
X86501098Y-120150335D01*
X86501094Y-120150344D01*
X86439938Y-120378586D01*
X86439936Y-120378596D01*
X86419341Y-120613999D01*
X86419341Y-120614388D01*
X86419292Y-120614553D01*
X86418869Y-120619394D01*
X86417896Y-120619308D01*
X86399656Y-120681427D01*
X86346852Y-120727182D01*
X86277694Y-120737126D01*
X86214138Y-120708101D01*
X86207660Y-120702069D01*
X83231803Y-117726212D01*
X83221980Y-117713950D01*
X83221759Y-117714134D01*
X83216786Y-117708123D01*
X83166364Y-117660773D01*
X83155919Y-117650328D01*
X83145475Y-117639883D01*
X83139986Y-117635625D01*
X83135561Y-117631847D01*
X83101582Y-117599938D01*
X83101580Y-117599936D01*
X83101577Y-117599935D01*
X83084029Y-117590288D01*
X83067763Y-117579604D01*
X83051933Y-117567325D01*
X83009168Y-117548818D01*
X83003922Y-117546248D01*
X82963093Y-117523803D01*
X82963092Y-117523802D01*
X82943693Y-117518822D01*
X82925281Y-117512518D01*
X82906898Y-117504562D01*
X82906892Y-117504560D01*
X82860874Y-117497272D01*
X82855152Y-117496087D01*
X82810021Y-117484500D01*
X82810019Y-117484500D01*
X82789984Y-117484500D01*
X82770586Y-117482973D01*
X82763162Y-117481797D01*
X82750805Y-117479840D01*
X82750802Y-117479839D01*
X82707759Y-117483908D01*
X82639165Y-117470618D01*
X82588645Y-117422354D01*
X82576317Y-117392551D01*
X82541741Y-117263511D01*
X82541738Y-117263502D01*
X82445568Y-117057267D01*
X82445567Y-117057265D01*
X82430331Y-117035506D01*
X82315047Y-116870861D01*
X82315045Y-116870858D01*
X82207222Y-116763035D01*
X82173737Y-116701712D01*
X82178721Y-116632020D01*
X82207218Y-116587677D01*
X82353495Y-116441401D01*
X82489035Y-116247830D01*
X82588903Y-116033663D01*
X82650063Y-115805408D01*
X82670659Y-115570000D01*
X82650063Y-115334592D01*
X82603626Y-115161285D01*
X82588905Y-115106344D01*
X82588904Y-115106343D01*
X82588903Y-115106337D01*
X82489035Y-114892171D01*
X82464004Y-114856422D01*
X82353494Y-114698597D01*
X82186402Y-114531506D01*
X82186396Y-114531501D01*
X82000842Y-114401575D01*
X81957217Y-114346998D01*
X81950023Y-114277500D01*
X81981546Y-114215145D01*
X82000842Y-114198425D01*
X82023026Y-114182891D01*
X82186401Y-114068495D01*
X82353495Y-113901401D01*
X82489035Y-113707830D01*
X82588903Y-113493663D01*
X82650063Y-113265408D01*
X82670659Y-113030000D01*
X82650063Y-112794592D01*
X82588903Y-112566337D01*
X82489035Y-112352171D01*
X82353495Y-112158599D01*
X82350390Y-112154164D01*
X82351569Y-112153337D01*
X82326273Y-112095526D01*
X82337316Y-112026535D01*
X82378150Y-111978264D01*
X82504139Y-111890047D01*
X82665047Y-111729139D01*
X82795568Y-111542734D01*
X82891739Y-111336496D01*
X82950635Y-111116692D01*
X82965500Y-110946784D01*
X82965500Y-110033216D01*
X82950635Y-109863308D01*
X82891739Y-109643504D01*
X82795568Y-109437266D01*
X82665047Y-109250861D01*
X82665045Y-109250858D01*
X82504141Y-109089954D01*
X82378152Y-109001737D01*
X82334527Y-108947161D01*
X82327333Y-108877662D01*
X82351419Y-108826556D01*
X82350389Y-108825835D01*
X82353490Y-108821405D01*
X82353495Y-108821401D01*
X82489035Y-108627830D01*
X82588903Y-108413663D01*
X82650063Y-108185408D01*
X82670659Y-107950000D01*
X82650063Y-107714592D01*
X82588903Y-107486337D01*
X82489035Y-107272171D01*
X82353495Y-107078599D01*
X82353494Y-107078597D01*
X82186402Y-106911506D01*
X82186396Y-106911501D01*
X82000842Y-106781575D01*
X81957217Y-106726998D01*
X81950023Y-106657500D01*
X81981546Y-106595145D01*
X82000842Y-106578425D01*
X82023026Y-106562891D01*
X82186401Y-106448495D01*
X82353495Y-106281401D01*
X82489035Y-106087830D01*
X82588903Y-105873663D01*
X82650063Y-105645408D01*
X82670659Y-105410000D01*
X82650063Y-105174592D01*
X82588903Y-104946337D01*
X82489035Y-104732171D01*
X82353495Y-104538599D01*
X82353494Y-104538597D01*
X82186402Y-104371506D01*
X82186396Y-104371501D01*
X82000842Y-104241575D01*
X81957217Y-104186998D01*
X81950023Y-104117500D01*
X81981546Y-104055145D01*
X82000842Y-104038425D01*
X82023026Y-104022891D01*
X82186401Y-103908495D01*
X82353495Y-103741401D01*
X82489035Y-103547830D01*
X82588903Y-103333663D01*
X82650063Y-103105408D01*
X82670659Y-102870000D01*
X82650063Y-102634592D01*
X82588903Y-102406337D01*
X82489035Y-102192171D01*
X82353495Y-101998599D01*
X82353494Y-101998597D01*
X82186402Y-101831506D01*
X82186396Y-101831501D01*
X82000842Y-101701575D01*
X81957217Y-101646998D01*
X81950023Y-101577500D01*
X81981546Y-101515145D01*
X82000842Y-101498425D01*
X82023026Y-101482891D01*
X82186401Y-101368495D01*
X82353495Y-101201401D01*
X82489035Y-101007830D01*
X82588903Y-100793663D01*
X82650063Y-100565408D01*
X82670659Y-100330000D01*
X82650063Y-100094592D01*
X82588903Y-99866337D01*
X82489035Y-99652171D01*
X82353495Y-99458599D01*
X82231567Y-99336671D01*
X82198084Y-99275351D01*
X82203068Y-99205659D01*
X82244939Y-99149725D01*
X82275915Y-99132810D01*
X82407331Y-99083796D01*
X82522546Y-98997546D01*
X82608796Y-98882331D01*
X82659091Y-98747483D01*
X82665500Y-98687873D01*
X82665499Y-96892128D01*
X82659091Y-96832517D01*
X82608796Y-96697669D01*
X82608794Y-96697666D01*
X82607991Y-96696593D01*
X82607522Y-96695337D01*
X82604546Y-96689886D01*
X82605330Y-96689457D01*
X82583577Y-96631127D01*
X82598431Y-96562855D01*
X82619579Y-96534606D01*
X82665047Y-96489139D01*
X82795568Y-96302734D01*
X82891739Y-96096496D01*
X82950635Y-95876692D01*
X82965500Y-95706784D01*
X82965500Y-94793216D01*
X82950635Y-94623308D01*
X82891739Y-94403504D01*
X82795568Y-94197266D01*
X82665047Y-94010861D01*
X82665045Y-94010858D01*
X82504141Y-93849954D01*
X82378152Y-93761737D01*
X82334527Y-93707161D01*
X82327333Y-93637662D01*
X82351419Y-93586556D01*
X82350389Y-93585835D01*
X82353490Y-93581405D01*
X82353495Y-93581401D01*
X82489035Y-93387830D01*
X82588903Y-93173663D01*
X82650063Y-92945408D01*
X82670659Y-92710000D01*
X82650063Y-92474592D01*
X82588903Y-92246337D01*
X82489035Y-92032171D01*
X82353495Y-91838599D01*
X82350390Y-91834164D01*
X82351569Y-91833337D01*
X82326273Y-91775526D01*
X82337316Y-91706535D01*
X82378150Y-91658264D01*
X82504139Y-91570047D01*
X82665047Y-91409139D01*
X82795568Y-91222734D01*
X82891739Y-91016496D01*
X82950635Y-90796692D01*
X82965500Y-90626784D01*
X82965500Y-89713216D01*
X82950635Y-89543308D01*
X82891739Y-89323504D01*
X82795568Y-89117266D01*
X82665047Y-88930861D01*
X82665045Y-88930858D01*
X82504141Y-88769954D01*
X82378152Y-88681737D01*
X82334527Y-88627161D01*
X82327333Y-88557662D01*
X82351419Y-88506556D01*
X82350389Y-88505835D01*
X82353490Y-88501405D01*
X82353495Y-88501401D01*
X82489035Y-88307830D01*
X82588903Y-88093663D01*
X82650063Y-87865408D01*
X82670659Y-87630000D01*
X82650063Y-87394592D01*
X82588903Y-87166337D01*
X82489035Y-86952171D01*
X82353495Y-86758599D01*
X82353494Y-86758597D01*
X82186402Y-86591506D01*
X82186396Y-86591501D01*
X82015763Y-86472023D01*
X81972138Y-86417446D01*
X81964944Y-86347948D01*
X81985312Y-86299324D01*
X82095129Y-86142489D01*
X82095133Y-86142483D01*
X82191265Y-85936326D01*
X82191269Y-85936317D01*
X82250139Y-85716610D01*
X82250141Y-85716599D01*
X82265000Y-85546763D01*
X82265000Y-85340000D01*
X81515000Y-85340000D01*
X81515000Y-84840000D01*
X82265000Y-84840000D01*
X82265000Y-84633237D01*
X82250141Y-84463400D01*
X82250139Y-84463389D01*
X82193393Y-84251608D01*
X82195056Y-84181759D01*
X82234219Y-84123896D01*
X82260753Y-84107138D01*
X82317734Y-84080568D01*
X82504139Y-83950047D01*
X82665047Y-83789139D01*
X82795568Y-83602734D01*
X82891739Y-83396496D01*
X82950635Y-83176692D01*
X82965500Y-83006784D01*
X82965500Y-82093216D01*
X82950635Y-81923308D01*
X82891739Y-81703504D01*
X82795568Y-81497266D01*
X82665047Y-81310861D01*
X82665045Y-81310858D01*
X82504141Y-81149954D01*
X82378152Y-81061737D01*
X82334527Y-81007161D01*
X82327333Y-80937662D01*
X82351419Y-80886556D01*
X82350389Y-80885835D01*
X82353490Y-80881405D01*
X82353495Y-80881401D01*
X82489035Y-80687830D01*
X82588903Y-80473663D01*
X82650063Y-80245408D01*
X82670659Y-80010000D01*
X82650063Y-79774592D01*
X82588903Y-79546337D01*
X82489035Y-79332171D01*
X82479251Y-79318197D01*
X82353494Y-79138597D01*
X82186402Y-78971506D01*
X82186395Y-78971501D01*
X82170815Y-78960592D01*
X82147521Y-78944281D01*
X81992834Y-78835967D01*
X81992830Y-78835965D01*
X81912827Y-78798659D01*
X81778663Y-78736097D01*
X81778659Y-78736096D01*
X81778655Y-78736094D01*
X81550413Y-78674938D01*
X81550403Y-78674936D01*
X81315001Y-78654341D01*
X81314999Y-78654341D01*
X81079596Y-78674936D01*
X81079586Y-78674938D01*
X80851344Y-78736094D01*
X80851335Y-78736098D01*
X80637171Y-78835964D01*
X80637169Y-78835965D01*
X80443597Y-78971505D01*
X80276505Y-79138597D01*
X80140965Y-79332169D01*
X80140964Y-79332171D01*
X80041098Y-79546335D01*
X80041094Y-79546344D01*
X79979938Y-79774586D01*
X79979936Y-79774596D01*
X79959341Y-80009999D01*
X79959341Y-80010000D01*
X79979936Y-80245403D01*
X79979938Y-80245413D01*
X80041094Y-80473655D01*
X80041096Y-80473659D01*
X80041097Y-80473663D01*
X80140965Y-80687829D01*
X80140965Y-80687830D01*
X80140967Y-80687834D01*
X80276501Y-80881395D01*
X80276506Y-80881402D01*
X80443597Y-81048493D01*
X80443603Y-81048498D01*
X80506487Y-81092530D01*
X80588497Y-81149954D01*
X80613826Y-81167689D01*
X80657451Y-81222266D01*
X80664645Y-81291764D01*
X80644279Y-81340386D01*
X80534432Y-81497266D01*
X80534432Y-81497267D01*
X80534430Y-81497270D01*
X80438261Y-81703502D01*
X80438258Y-81703511D01*
X80379366Y-81923302D01*
X80379364Y-81923312D01*
X80364500Y-82093216D01*
X80364500Y-83006784D01*
X80379364Y-83176687D01*
X80379366Y-83176697D01*
X80436277Y-83389095D01*
X80434614Y-83458945D01*
X80395451Y-83516807D01*
X80368908Y-83533570D01*
X80312517Y-83559865D01*
X80126179Y-83690342D01*
X79965342Y-83851179D01*
X79834865Y-84037517D01*
X79738734Y-84243673D01*
X79738730Y-84243682D01*
X79679860Y-84463389D01*
X79679858Y-84463400D01*
X79665000Y-84633237D01*
X79665000Y-84840000D01*
X80415000Y-84840000D01*
X80415000Y-85340000D01*
X79665000Y-85340000D01*
X79665000Y-85546763D01*
X79679858Y-85716599D01*
X79679860Y-85716610D01*
X79738730Y-85936317D01*
X79738734Y-85936326D01*
X79834865Y-86142482D01*
X79965342Y-86328820D01*
X80126179Y-86489657D01*
X80252169Y-86577877D01*
X80295794Y-86632454D01*
X80302986Y-86701953D01*
X80278696Y-86753524D01*
X80279610Y-86754164D01*
X80140965Y-86952169D01*
X80140964Y-86952171D01*
X80041098Y-87166335D01*
X80041094Y-87166344D01*
X79979938Y-87394586D01*
X79979936Y-87394596D01*
X79959341Y-87629999D01*
X79959341Y-87630000D01*
X79979936Y-87865403D01*
X79979938Y-87865413D01*
X80041094Y-88093655D01*
X80041096Y-88093659D01*
X80041097Y-88093663D01*
X80140965Y-88307829D01*
X80140965Y-88307830D01*
X80140967Y-88307834D01*
X80276501Y-88501395D01*
X80276506Y-88501402D01*
X80443597Y-88668493D01*
X80443603Y-88668498D01*
X80506487Y-88712530D01*
X80588497Y-88769954D01*
X80613826Y-88787689D01*
X80657451Y-88842266D01*
X80664645Y-88911764D01*
X80644279Y-88960386D01*
X80534432Y-89117266D01*
X80534432Y-89117267D01*
X80534430Y-89117270D01*
X80438261Y-89323502D01*
X80438258Y-89323511D01*
X80379366Y-89543302D01*
X80379364Y-89543312D01*
X80364500Y-89713216D01*
X80364500Y-90626784D01*
X80379364Y-90796687D01*
X80379366Y-90796697D01*
X80438258Y-91016488D01*
X80438261Y-91016497D01*
X80534431Y-91222732D01*
X80534432Y-91222734D01*
X80644278Y-91379612D01*
X80666605Y-91445818D01*
X80649594Y-91513586D01*
X80613827Y-91552310D01*
X80443594Y-91671508D01*
X80276505Y-91838597D01*
X80140965Y-92032169D01*
X80140964Y-92032171D01*
X80041098Y-92246335D01*
X80041094Y-92246344D01*
X79979938Y-92474586D01*
X79979936Y-92474596D01*
X79959341Y-92709999D01*
X79959341Y-92710000D01*
X79979936Y-92945403D01*
X79979938Y-92945413D01*
X80041094Y-93173655D01*
X80041096Y-93173659D01*
X80041097Y-93173663D01*
X80140965Y-93387829D01*
X80140965Y-93387830D01*
X80140967Y-93387834D01*
X80276501Y-93581395D01*
X80276506Y-93581402D01*
X80443597Y-93748493D01*
X80443603Y-93748498D01*
X80506487Y-93792530D01*
X80588497Y-93849954D01*
X80613826Y-93867689D01*
X80657451Y-93922266D01*
X80664645Y-93991764D01*
X80644279Y-94040386D01*
X80534432Y-94197266D01*
X80534432Y-94197267D01*
X80534430Y-94197270D01*
X80438261Y-94403502D01*
X80438258Y-94403511D01*
X80379366Y-94623302D01*
X80379364Y-94623312D01*
X80364500Y-94793216D01*
X80364500Y-95706784D01*
X80379364Y-95876687D01*
X80379366Y-95876697D01*
X80438258Y-96096488D01*
X80438260Y-96096492D01*
X80438261Y-96096496D01*
X80508926Y-96248037D01*
X80516278Y-96263803D01*
X80526770Y-96332881D01*
X80498250Y-96396665D01*
X80439774Y-96434904D01*
X80417150Y-96439498D01*
X80357516Y-96445908D01*
X80222671Y-96496202D01*
X80222664Y-96496206D01*
X80107455Y-96582452D01*
X80107452Y-96582455D01*
X80021206Y-96697664D01*
X80021202Y-96697671D01*
X79970908Y-96832517D01*
X79964501Y-96892116D01*
X79964501Y-96892123D01*
X79964500Y-96892135D01*
X79964500Y-98687870D01*
X79964501Y-98687876D01*
X79970908Y-98747483D01*
X80021202Y-98882328D01*
X80021206Y-98882335D01*
X80107452Y-98997544D01*
X80107455Y-98997547D01*
X80222664Y-99083793D01*
X80222671Y-99083797D01*
X80354081Y-99132810D01*
X80410015Y-99174681D01*
X80434432Y-99240145D01*
X80419580Y-99308418D01*
X80398430Y-99336673D01*
X80276503Y-99458600D01*
X80140965Y-99652169D01*
X80140964Y-99652171D01*
X80041098Y-99866335D01*
X80041094Y-99866344D01*
X79979938Y-100094586D01*
X79979936Y-100094596D01*
X79959341Y-100329999D01*
X79959341Y-100330000D01*
X79979936Y-100565403D01*
X79979938Y-100565413D01*
X80041094Y-100793655D01*
X80041096Y-100793659D01*
X80041097Y-100793663D01*
X80140965Y-101007830D01*
X80140967Y-101007834D01*
X80276501Y-101201395D01*
X80276506Y-101201402D01*
X80443597Y-101368493D01*
X80443603Y-101368498D01*
X80629158Y-101498425D01*
X80672783Y-101553002D01*
X80679977Y-101622500D01*
X80648454Y-101684855D01*
X80629158Y-101701575D01*
X80443597Y-101831505D01*
X80276505Y-101998597D01*
X80140965Y-102192169D01*
X80140964Y-102192171D01*
X80041098Y-102406335D01*
X80041094Y-102406344D01*
X79979938Y-102634586D01*
X79979936Y-102634596D01*
X79959341Y-102869999D01*
X79959341Y-102870000D01*
X79979936Y-103105403D01*
X79979938Y-103105413D01*
X80041094Y-103333655D01*
X80041096Y-103333659D01*
X80041097Y-103333663D01*
X80140965Y-103547830D01*
X80140967Y-103547834D01*
X80276501Y-103741395D01*
X80276506Y-103741402D01*
X80443597Y-103908493D01*
X80443603Y-103908498D01*
X80629158Y-104038425D01*
X80672783Y-104093002D01*
X80679977Y-104162500D01*
X80648454Y-104224855D01*
X80629158Y-104241575D01*
X80443597Y-104371505D01*
X80276505Y-104538597D01*
X80140965Y-104732169D01*
X80140964Y-104732171D01*
X80041098Y-104946335D01*
X80041094Y-104946344D01*
X79979938Y-105174586D01*
X79979936Y-105174596D01*
X79959341Y-105409999D01*
X79959341Y-105410000D01*
X79979936Y-105645403D01*
X79979938Y-105645413D01*
X80041094Y-105873655D01*
X80041096Y-105873659D01*
X80041097Y-105873663D01*
X80140965Y-106087830D01*
X80140967Y-106087834D01*
X80276501Y-106281395D01*
X80276506Y-106281402D01*
X80443597Y-106448493D01*
X80443603Y-106448498D01*
X80629158Y-106578425D01*
X80672783Y-106633002D01*
X80679977Y-106702500D01*
X80648454Y-106764855D01*
X80629158Y-106781575D01*
X80443597Y-106911505D01*
X80276505Y-107078597D01*
X80140965Y-107272169D01*
X80140964Y-107272171D01*
X80041098Y-107486335D01*
X80041094Y-107486344D01*
X79979938Y-107714586D01*
X79979936Y-107714596D01*
X79959341Y-107949999D01*
X79959341Y-107950000D01*
X79979936Y-108185403D01*
X79979938Y-108185413D01*
X80041094Y-108413655D01*
X80041096Y-108413659D01*
X80041097Y-108413663D01*
X80135396Y-108615887D01*
X80140965Y-108627830D01*
X80140967Y-108627834D01*
X80276501Y-108821395D01*
X80276506Y-108821402D01*
X80443597Y-108988493D01*
X80443603Y-108988498D01*
X80506487Y-109032530D01*
X80588497Y-109089954D01*
X80613826Y-109107689D01*
X80657451Y-109162266D01*
X80664645Y-109231764D01*
X80644279Y-109280386D01*
X80534432Y-109437266D01*
X80534432Y-109437267D01*
X80534430Y-109437270D01*
X80438261Y-109643502D01*
X80438258Y-109643511D01*
X80379366Y-109863302D01*
X80379364Y-109863312D01*
X80364500Y-110033216D01*
X80364500Y-110946784D01*
X80379364Y-111116687D01*
X80379366Y-111116697D01*
X80438258Y-111336488D01*
X80438261Y-111336497D01*
X80534431Y-111542732D01*
X80534432Y-111542734D01*
X80644278Y-111699612D01*
X80666605Y-111765818D01*
X80649594Y-111833586D01*
X80613827Y-111872310D01*
X80443594Y-111991508D01*
X80276505Y-112158597D01*
X80140965Y-112352169D01*
X80140964Y-112352171D01*
X80041098Y-112566335D01*
X80041094Y-112566344D01*
X79979938Y-112794586D01*
X79979936Y-112794596D01*
X79959341Y-113029999D01*
X79959341Y-113030000D01*
X79979936Y-113265403D01*
X79979938Y-113265413D01*
X80041094Y-113493655D01*
X80041096Y-113493659D01*
X80041097Y-113493663D01*
X80140965Y-113707830D01*
X80140967Y-113707834D01*
X80249281Y-113862521D01*
X80269840Y-113891883D01*
X80276501Y-113901395D01*
X80276506Y-113901402D01*
X80443597Y-114068493D01*
X80443603Y-114068498D01*
X80629158Y-114198425D01*
X80672783Y-114253002D01*
X80679977Y-114322500D01*
X80648454Y-114384855D01*
X80629158Y-114401575D01*
X80443597Y-114531505D01*
X80276505Y-114698597D01*
X80140965Y-114892169D01*
X80140964Y-114892171D01*
X80041098Y-115106335D01*
X80041094Y-115106344D01*
X79979938Y-115334586D01*
X79979936Y-115334596D01*
X79959341Y-115569999D01*
X79959341Y-115570000D01*
X79979936Y-115805403D01*
X79979938Y-115805413D01*
X80041094Y-116033655D01*
X80041096Y-116033659D01*
X80041097Y-116033663D01*
X80124060Y-116211578D01*
X80140965Y-116247830D01*
X80140967Y-116247834D01*
X80249281Y-116402521D01*
X80276501Y-116441396D01*
X80276506Y-116441402D01*
X80422777Y-116587673D01*
X80456262Y-116648996D01*
X80451278Y-116718688D01*
X80422778Y-116763035D01*
X80314951Y-116870862D01*
X80184432Y-117057265D01*
X80184431Y-117057267D01*
X80088261Y-117263502D01*
X80088258Y-117263511D01*
X80029366Y-117483302D01*
X80029364Y-117483312D01*
X80014500Y-117653216D01*
X80014500Y-118566784D01*
X80029364Y-118736687D01*
X80029366Y-118736697D01*
X80088258Y-118956488D01*
X80088261Y-118956497D01*
X80184431Y-119162732D01*
X80184432Y-119162734D01*
X80314954Y-119349141D01*
X80475858Y-119510045D01*
X80475861Y-119510047D01*
X80662266Y-119640568D01*
X80718776Y-119666919D01*
X80771215Y-119713092D01*
X80790367Y-119780285D01*
X80786146Y-119811394D01*
X80729366Y-120023302D01*
X80729364Y-120023312D01*
X80714500Y-120193216D01*
X80714500Y-121106784D01*
X80729364Y-121276687D01*
X80729366Y-121276697D01*
X80788258Y-121496488D01*
X80788260Y-121496492D01*
X80788261Y-121496496D01*
X80828361Y-121582490D01*
X80857200Y-121644336D01*
X80867692Y-121713414D01*
X80839172Y-121777198D01*
X80829900Y-121786398D01*
X80830012Y-121786510D01*
X80665342Y-121951179D01*
X80534865Y-122137517D01*
X80438734Y-122343673D01*
X80438730Y-122343682D01*
X80379860Y-122563389D01*
X80379858Y-122563400D01*
X80365000Y-122733237D01*
X80365000Y-122940000D01*
X81115000Y-122940000D01*
X81115000Y-123440000D01*
X80365000Y-123440000D01*
X80365000Y-123646763D01*
X80379858Y-123816599D01*
X80379860Y-123816610D01*
X80438730Y-124036317D01*
X80438734Y-124036326D01*
X80507377Y-124183532D01*
X80517869Y-124252610D01*
X80489349Y-124316394D01*
X80479615Y-124326052D01*
X80479689Y-124326126D01*
X80475864Y-124329950D01*
X80475861Y-124329953D01*
X80428812Y-124377002D01*
X80314951Y-124490862D01*
X80184432Y-124677265D01*
X80184431Y-124677267D01*
X80088261Y-124883502D01*
X80088258Y-124883511D01*
X80029366Y-125103302D01*
X80029364Y-125103312D01*
X80014500Y-125273216D01*
X80014500Y-126186784D01*
X80029364Y-126356687D01*
X80029366Y-126356697D01*
X80088258Y-126576488D01*
X80088261Y-126576497D01*
X80184431Y-126782732D01*
X80184432Y-126782734D01*
X80314954Y-126969141D01*
X80475858Y-127130045D01*
X80475861Y-127130047D01*
X80662266Y-127260568D01*
X80718776Y-127286919D01*
X80771215Y-127333092D01*
X80790367Y-127400285D01*
X80786146Y-127431394D01*
X80729366Y-127643302D01*
X80729364Y-127643312D01*
X80714500Y-127813216D01*
X80714500Y-128726784D01*
X80729364Y-128896687D01*
X80729366Y-128896697D01*
X80788258Y-129116488D01*
X80788261Y-129116497D01*
X80884431Y-129322732D01*
X80884432Y-129322734D01*
X81014954Y-129509141D01*
X81175858Y-129670045D01*
X81175861Y-129670047D01*
X81362266Y-129800568D01*
X81568504Y-129896739D01*
X81568509Y-129896740D01*
X81568511Y-129896741D01*
X81695338Y-129930724D01*
X81754999Y-129967089D01*
X81785528Y-130029936D01*
X81777233Y-130099311D01*
X81732748Y-130153189D01*
X81666196Y-130174464D01*
X81663245Y-130174499D01*
X80682442Y-130174499D01*
X80677576Y-130174308D01*
X80623084Y-130170019D01*
X80482430Y-130157713D01*
X80464291Y-130154759D01*
X80384003Y-130135484D01*
X80273279Y-130105815D01*
X80265592Y-130103205D01*
X80179037Y-130067354D01*
X80080045Y-130021192D01*
X80073847Y-130017862D01*
X79993238Y-129968465D01*
X79990071Y-129966388D01*
X79903409Y-129905707D01*
X79898702Y-129902063D01*
X79826161Y-129840107D01*
X79822585Y-129836801D01*
X79748197Y-129762413D01*
X79744891Y-129758837D01*
X79722546Y-129732675D01*
X79682935Y-129686296D01*
X79679291Y-129681589D01*
X79618610Y-129594927D01*
X79616533Y-129591760D01*
X79616529Y-129591754D01*
X79567134Y-129511148D01*
X79563811Y-129504964D01*
X79517650Y-129405972D01*
X79481790Y-129319398D01*
X79479183Y-129311718D01*
X79449515Y-129200996D01*
X79430236Y-129120695D01*
X79427286Y-129102574D01*
X79414987Y-128962000D01*
X79410689Y-128907399D01*
X79410500Y-128902585D01*
X79410500Y-79377435D01*
X79410691Y-79372571D01*
X79414984Y-79318023D01*
X79427286Y-79177416D01*
X79430234Y-79159307D01*
X79449517Y-79078988D01*
X79479183Y-78968279D01*
X79481790Y-78960598D01*
X79517649Y-78874026D01*
X79563813Y-78775028D01*
X79567127Y-78768860D01*
X79616562Y-78688190D01*
X79618587Y-78685102D01*
X79679316Y-78598372D01*
X79682908Y-78593733D01*
X79744914Y-78521133D01*
X79748149Y-78517634D01*
X79822634Y-78443149D01*
X79826133Y-78439914D01*
X79898733Y-78377908D01*
X79903372Y-78374316D01*
X79990102Y-78313587D01*
X79993190Y-78311562D01*
X80073860Y-78262127D01*
X80080028Y-78258813D01*
X80179026Y-78212649D01*
X80265599Y-78176789D01*
X80273285Y-78174181D01*
X80275617Y-78173556D01*
X80383984Y-78144518D01*
X80464307Y-78125234D01*
X80482416Y-78122286D01*
X80623023Y-78109984D01*
X80677572Y-78105690D01*
X80682437Y-78105500D01*
X85073136Y-78105500D01*
X85073139Y-78105501D01*
G37*
%TD.AperFunction*%
%TA.AperFunction,Conductor*%
G36*
X83426330Y-119699565D02*
G01*
X83459829Y-119723419D01*
X85013096Y-121276687D01*
X86434761Y-122698352D01*
X86468246Y-122759675D01*
X86466855Y-122818124D01*
X86439937Y-122918589D01*
X86439937Y-122918590D01*
X86419341Y-123153999D01*
X86419341Y-123154000D01*
X86439936Y-123389403D01*
X86439938Y-123389413D01*
X86501094Y-123617655D01*
X86501096Y-123617659D01*
X86501097Y-123617663D01*
X86505741Y-123627622D01*
X86600965Y-123831830D01*
X86600967Y-123831834D01*
X86736501Y-124025395D01*
X86736506Y-124025402D01*
X86903597Y-124192493D01*
X86903603Y-124192498D01*
X87089158Y-124322425D01*
X87132783Y-124377002D01*
X87139977Y-124446500D01*
X87108454Y-124508855D01*
X87089158Y-124525575D01*
X86903597Y-124655505D01*
X86736505Y-124822597D01*
X86601348Y-125015623D01*
X86546771Y-125059248D01*
X86499773Y-125068500D01*
X82686457Y-125068500D01*
X82619418Y-125048815D01*
X82573663Y-124996011D01*
X82566682Y-124976593D01*
X82541741Y-124883511D01*
X82541740Y-124883510D01*
X82541739Y-124883504D01*
X82472798Y-124735662D01*
X82462307Y-124666586D01*
X82490827Y-124602801D01*
X82500100Y-124593604D01*
X82499987Y-124593491D01*
X82664660Y-124428816D01*
X82795134Y-124242482D01*
X82891265Y-124036326D01*
X82891269Y-124036317D01*
X82950139Y-123816610D01*
X82950141Y-123816599D01*
X82965000Y-123646763D01*
X82965000Y-123440000D01*
X82215000Y-123440000D01*
X82215000Y-122940000D01*
X82965000Y-122940000D01*
X82965000Y-122733237D01*
X82950141Y-122563400D01*
X82950139Y-122563389D01*
X82891269Y-122343682D01*
X82891264Y-122343668D01*
X82822623Y-122196466D01*
X82812131Y-122127389D01*
X82840651Y-122063605D01*
X82850385Y-122053950D01*
X82850311Y-122053876D01*
X83015045Y-121889141D01*
X83015047Y-121889139D01*
X83145568Y-121702734D01*
X83241739Y-121496496D01*
X83300635Y-121276692D01*
X83315500Y-121106784D01*
X83315500Y-120193216D01*
X83300635Y-120023308D01*
X83252374Y-119843194D01*
X83254037Y-119773344D01*
X83293200Y-119715482D01*
X83357428Y-119687978D01*
X83426330Y-119699565D01*
G37*
%TD.AperFunction*%
%TD*%
M02*
