%TF.GenerationSoftware,KiCad,Pcbnew,7.0.9*%
%TF.CreationDate,2024-01-28T12:44:50+11:00*%
%TF.ProjectId,Camera-Wing-SHIM,43616d65-7261-42d5-9769-6e672d534849,rev?*%
%TF.SameCoordinates,Original*%
%TF.FileFunction,Copper,L1,Top*%
%TF.FilePolarity,Positive*%
%FSLAX46Y46*%
G04 Gerber Fmt 4.6, Leading zero omitted, Abs format (unit mm)*
G04 Created by KiCad (PCBNEW 7.0.9) date 2024-01-28 12:44:50*
%MOMM*%
%LPD*%
G01*
G04 APERTURE LIST*
%TA.AperFunction,ComponentPad*%
%ADD10R,1.700000X1.700000*%
%TD*%
%TA.AperFunction,ComponentPad*%
%ADD11O,1.700000X1.700000*%
%TD*%
%TA.AperFunction,ComponentPad*%
%ADD12O,1.600000X2.400000*%
%TD*%
%TA.AperFunction,SMDPad,CuDef*%
%ADD13R,3.000000X1.200000*%
%TD*%
%TA.AperFunction,Conductor*%
%ADD14C,0.250000*%
%TD*%
G04 APERTURE END LIST*
D10*
%TO.P,J3,1,Pin_1*%
%TO.N,+3V3*%
X87775000Y-112994000D03*
D11*
%TO.P,J3,2,Pin_2*%
%TO.N,GND*%
X87775000Y-115534000D03*
%TO.P,J3,3,Pin_3*%
%TO.N,/CLK*%
X87775000Y-118074000D03*
%TO.P,J3,4,Pin_4*%
%TO.N,/MISO*%
X87775000Y-120614000D03*
%TO.P,J3,5,Pin_5*%
%TO.N,/MOSI*%
X87775000Y-123154000D03*
%TO.P,J3,6,Pin_6*%
%TO.N,/CS*%
X87775000Y-125694000D03*
%TD*%
%TO.P,J1,1,Pin_1*%
%TO.N,unconnected-(J1-Pin_1-Pad1)*%
X81315000Y-80010000D03*
D12*
%TO.P,J1,2,Pin_2*%
%TO.N,unconnected-(J1-Pin_2-Pad2)*%
X81665000Y-82550000D03*
%TO.P,J1,3,Pin_3*%
%TO.N,GND*%
X80965000Y-85090000D03*
D11*
%TO.P,J1,4,Pin_4*%
%TO.N,unconnected-(J1-Pin_4-Pad4)*%
X81315000Y-87630000D03*
D12*
%TO.P,J1,5,Pin_5*%
%TO.N,+3V3*%
X81665000Y-90170000D03*
D11*
%TO.P,J1,6,Pin_6*%
%TO.N,unconnected-(J1-Pin_6-Pad6)*%
X81315000Y-92710000D03*
D12*
%TO.P,J1,7,Pin_7*%
%TO.N,unconnected-(J1-Pin_7-Pad7)*%
X81665000Y-95250000D03*
D10*
%TO.P,J1,8,Pin_8*%
%TO.N,unconnected-(J1-Pin_8-Pad8)*%
X81315000Y-97790000D03*
D11*
%TO.P,J1,9,Pin_9*%
%TO.N,unconnected-(J1-Pin_9-Pad9)*%
X81315000Y-100330000D03*
%TO.P,J1,10,Pin_10*%
%TO.N,unconnected-(J1-Pin_10-Pad10)*%
X81315000Y-102870000D03*
%TO.P,J1,11,Pin_11*%
%TO.N,unconnected-(J1-Pin_11-Pad11)*%
X81315000Y-105410000D03*
%TO.P,J1,12,Pin_12*%
%TO.N,unconnected-(J1-Pin_12-Pad12)*%
X81315000Y-107950000D03*
D12*
%TO.P,J1,13,Pin_13*%
%TO.N,unconnected-(J1-Pin_13-Pad13)*%
X81665000Y-110490000D03*
D11*
%TO.P,J1,14,Pin_14*%
%TO.N,unconnected-(J1-Pin_14-Pad14)*%
X81315000Y-113030000D03*
%TO.P,J1,15,Pin_15*%
%TO.N,unconnected-(J1-Pin_15-Pad15)*%
X81315000Y-115570000D03*
D12*
%TO.P,J1,16,Pin_16*%
%TO.N,/MOSI*%
X81315000Y-118110000D03*
%TO.P,J1,17,Pin_17*%
%TO.N,/CLK*%
X82015000Y-120650000D03*
%TO.P,J1,18,Pin_18*%
%TO.N,GND*%
X81665000Y-123190000D03*
%TO.P,J1,19,Pin_19*%
%TO.N,/CS*%
X81315000Y-125730000D03*
%TO.P,J1,20,Pin_20*%
%TO.N,/MISO*%
X82015000Y-128270000D03*
%TD*%
D13*
%TO.P,J2,1,Pin_1*%
%TO.N,+3V3*%
X92216000Y-112994000D03*
%TO.P,J2,2,Pin_2*%
%TO.N,GND*%
X95526000Y-115534000D03*
%TO.P,J2,3,Pin_3*%
%TO.N,/CLK*%
X92216000Y-118074000D03*
%TO.P,J2,4,Pin_4*%
%TO.N,/MISO*%
X95526000Y-120614000D03*
%TO.P,J2,5,Pin_5*%
%TO.N,/MOSI*%
X92216000Y-123154000D03*
%TO.P,J2,6,Pin_6*%
%TO.N,/CS*%
X95526000Y-125694000D03*
%TD*%
D14*
%TO.N,+3V3*%
X84219000Y-111470000D02*
X84219000Y-91150000D01*
X83239000Y-90170000D02*
X81665000Y-90170000D01*
X87775000Y-112994000D02*
X85743000Y-112994000D01*
X85743000Y-112994000D02*
X84219000Y-111470000D01*
X92216000Y-112994000D02*
X87775000Y-112994000D01*
X84219000Y-91150000D02*
X83239000Y-90170000D01*
%TO.N,GND*%
X95526000Y-115534000D02*
X87775000Y-115534000D01*
%TO.N,/MOSI*%
X92216000Y-123154000D02*
X87775000Y-123154000D01*
%TO.N,/CLK*%
X83675000Y-120650000D02*
X82015000Y-120650000D01*
X87775000Y-118074000D02*
X86251000Y-118074000D01*
X92216000Y-118074000D02*
X87775000Y-118074000D01*
X86251000Y-118074000D02*
X83675000Y-120650000D01*
%TO.N,/CS*%
X95526000Y-125694000D02*
X87775000Y-125694000D01*
%TO.N,/MISO*%
X84727000Y-123662000D02*
X84727000Y-126710000D01*
X95526000Y-120614000D02*
X87775000Y-120614000D01*
X84727000Y-126710000D02*
X83167000Y-128270000D01*
X83167000Y-128270000D02*
X82015000Y-128270000D01*
X87775000Y-120614000D02*
X84727000Y-123662000D01*
%TD*%
%TA.AperFunction,NonConductor*%
G36*
X83070073Y-90898224D02*
G01*
X83108942Y-90924532D01*
X83557181Y-91372771D01*
X83590666Y-91434094D01*
X83593500Y-91460452D01*
X83593500Y-111387255D01*
X83591775Y-111402872D01*
X83592061Y-111402899D01*
X83591326Y-111410665D01*
X83593500Y-111479814D01*
X83593500Y-111509343D01*
X83593501Y-111509360D01*
X83594368Y-111516231D01*
X83594826Y-111522050D01*
X83596290Y-111568624D01*
X83596291Y-111568627D01*
X83601880Y-111587867D01*
X83605824Y-111606911D01*
X83608336Y-111626792D01*
X83625490Y-111670119D01*
X83627382Y-111675647D01*
X83640381Y-111720388D01*
X83650580Y-111737634D01*
X83659136Y-111755100D01*
X83666514Y-111773732D01*
X83693898Y-111811423D01*
X83697106Y-111816307D01*
X83720827Y-111856416D01*
X83720833Y-111856424D01*
X83734990Y-111870580D01*
X83747628Y-111885376D01*
X83759405Y-111901586D01*
X83759406Y-111901587D01*
X83795309Y-111931288D01*
X83799620Y-111935210D01*
X84894408Y-113029999D01*
X85242197Y-113377788D01*
X85252022Y-113390051D01*
X85252243Y-113389869D01*
X85257214Y-113395878D01*
X85283217Y-113420295D01*
X85307635Y-113443226D01*
X85328529Y-113464120D01*
X85334011Y-113468373D01*
X85338443Y-113472157D01*
X85372418Y-113504062D01*
X85389976Y-113513714D01*
X85406235Y-113524395D01*
X85422064Y-113536673D01*
X85464838Y-113555182D01*
X85470056Y-113557738D01*
X85510908Y-113580197D01*
X85530316Y-113585180D01*
X85548717Y-113591480D01*
X85567104Y-113599437D01*
X85610488Y-113606308D01*
X85613119Y-113606725D01*
X85618839Y-113607909D01*
X85663981Y-113619500D01*
X85684016Y-113619500D01*
X85703414Y-113621026D01*
X85723194Y-113624159D01*
X85723195Y-113624160D01*
X85723195Y-113624159D01*
X85723196Y-113624160D01*
X85769584Y-113619775D01*
X85775422Y-113619500D01*
X86300501Y-113619500D01*
X86367540Y-113639185D01*
X86413295Y-113691989D01*
X86424501Y-113743500D01*
X86424501Y-113891876D01*
X86430908Y-113951483D01*
X86481202Y-114086328D01*
X86481206Y-114086335D01*
X86567452Y-114201544D01*
X86567455Y-114201547D01*
X86682664Y-114287793D01*
X86682671Y-114287797D01*
X86814081Y-114336810D01*
X86870015Y-114378681D01*
X86894432Y-114444145D01*
X86879580Y-114512418D01*
X86858430Y-114540673D01*
X86736503Y-114662600D01*
X86600965Y-114856169D01*
X86600964Y-114856171D01*
X86501098Y-115070335D01*
X86501094Y-115070344D01*
X86439938Y-115298586D01*
X86439936Y-115298596D01*
X86419341Y-115533999D01*
X86419341Y-115534000D01*
X86439936Y-115769403D01*
X86439938Y-115769413D01*
X86501094Y-115997655D01*
X86501096Y-115997659D01*
X86501097Y-115997663D01*
X86600965Y-116211830D01*
X86600967Y-116211834D01*
X86621728Y-116241483D01*
X86736501Y-116405396D01*
X86736506Y-116405402D01*
X86903597Y-116572493D01*
X86903603Y-116572498D01*
X87089158Y-116702425D01*
X87132783Y-116757002D01*
X87139977Y-116826500D01*
X87108454Y-116888855D01*
X87089158Y-116905575D01*
X86903597Y-117035505D01*
X86736505Y-117202597D01*
X86601348Y-117395623D01*
X86546771Y-117439248D01*
X86499773Y-117448500D01*
X86333738Y-117448500D01*
X86318121Y-117446776D01*
X86318094Y-117447062D01*
X86310332Y-117446327D01*
X86241204Y-117448500D01*
X86211650Y-117448500D01*
X86210929Y-117448590D01*
X86204757Y-117449369D01*
X86198945Y-117449826D01*
X86152373Y-117451290D01*
X86152372Y-117451290D01*
X86133129Y-117456881D01*
X86114079Y-117460825D01*
X86094211Y-117463334D01*
X86094209Y-117463335D01*
X86050884Y-117480488D01*
X86045357Y-117482380D01*
X86000610Y-117495381D01*
X86000609Y-117495382D01*
X85983367Y-117505579D01*
X85965899Y-117514137D01*
X85947269Y-117521513D01*
X85947267Y-117521514D01*
X85909576Y-117548898D01*
X85904694Y-117552105D01*
X85864579Y-117575830D01*
X85850408Y-117590000D01*
X85835623Y-117602628D01*
X85819412Y-117614407D01*
X85789709Y-117650310D01*
X85785777Y-117654631D01*
X83477115Y-119963293D01*
X83415792Y-119996778D01*
X83346100Y-119991794D01*
X83290167Y-119949922D01*
X83269659Y-119907705D01*
X83269340Y-119906516D01*
X83241739Y-119803504D01*
X83145568Y-119597266D01*
X83015047Y-119410861D01*
X83015045Y-119410858D01*
X82854141Y-119249954D01*
X82667735Y-119119433D01*
X82667736Y-119119433D01*
X82667734Y-119119432D01*
X82611221Y-119093079D01*
X82558783Y-119046907D01*
X82539632Y-118979713D01*
X82543852Y-118948608D01*
X82600635Y-118736692D01*
X82615500Y-118566784D01*
X82615500Y-117653216D01*
X82600635Y-117483308D01*
X82541739Y-117263504D01*
X82445568Y-117057266D01*
X82315047Y-116870861D01*
X82315045Y-116870858D01*
X82207222Y-116763035D01*
X82173737Y-116701712D01*
X82178721Y-116632020D01*
X82207218Y-116587677D01*
X82353495Y-116441401D01*
X82489035Y-116247830D01*
X82588903Y-116033663D01*
X82650063Y-115805408D01*
X82670659Y-115570000D01*
X82650063Y-115334592D01*
X82588903Y-115106337D01*
X82489035Y-114892171D01*
X82486686Y-114888815D01*
X82353494Y-114698597D01*
X82186402Y-114531506D01*
X82186396Y-114531501D01*
X82000842Y-114401575D01*
X81957217Y-114346998D01*
X81950023Y-114277500D01*
X81981546Y-114215145D01*
X82000842Y-114198425D01*
X82023026Y-114182891D01*
X82186401Y-114068495D01*
X82353495Y-113901401D01*
X82489035Y-113707830D01*
X82588903Y-113493663D01*
X82650063Y-113265408D01*
X82670659Y-113030000D01*
X82650063Y-112794592D01*
X82588903Y-112566337D01*
X82489035Y-112352171D01*
X82489034Y-112352169D01*
X82350390Y-112154164D01*
X82351569Y-112153337D01*
X82326273Y-112095526D01*
X82337316Y-112026535D01*
X82378150Y-111978264D01*
X82504139Y-111890047D01*
X82665047Y-111729139D01*
X82795568Y-111542734D01*
X82891739Y-111336496D01*
X82950635Y-111116692D01*
X82965500Y-110946784D01*
X82965500Y-110033216D01*
X82950635Y-109863308D01*
X82891739Y-109643504D01*
X82795568Y-109437266D01*
X82665047Y-109250861D01*
X82665045Y-109250858D01*
X82504141Y-109089954D01*
X82378152Y-109001737D01*
X82334527Y-108947161D01*
X82327333Y-108877662D01*
X82351419Y-108826556D01*
X82350389Y-108825835D01*
X82353490Y-108821405D01*
X82353495Y-108821401D01*
X82489035Y-108627830D01*
X82588903Y-108413663D01*
X82650063Y-108185408D01*
X82670659Y-107950000D01*
X82650063Y-107714592D01*
X82588903Y-107486337D01*
X82489035Y-107272171D01*
X82353495Y-107078599D01*
X82353494Y-107078597D01*
X82186402Y-106911506D01*
X82186396Y-106911501D01*
X82000842Y-106781575D01*
X81957217Y-106726998D01*
X81950023Y-106657500D01*
X81981546Y-106595145D01*
X82000842Y-106578425D01*
X82023026Y-106562891D01*
X82186401Y-106448495D01*
X82353495Y-106281401D01*
X82489035Y-106087830D01*
X82588903Y-105873663D01*
X82650063Y-105645408D01*
X82670659Y-105410000D01*
X82650063Y-105174592D01*
X82588903Y-104946337D01*
X82489035Y-104732171D01*
X82353495Y-104538599D01*
X82353494Y-104538597D01*
X82186402Y-104371506D01*
X82186396Y-104371501D01*
X82000842Y-104241575D01*
X81957217Y-104186998D01*
X81950023Y-104117500D01*
X81981546Y-104055145D01*
X82000842Y-104038425D01*
X82023026Y-104022891D01*
X82186401Y-103908495D01*
X82353495Y-103741401D01*
X82489035Y-103547830D01*
X82588903Y-103333663D01*
X82650063Y-103105408D01*
X82670659Y-102870000D01*
X82650063Y-102634592D01*
X82588903Y-102406337D01*
X82489035Y-102192171D01*
X82353495Y-101998599D01*
X82353494Y-101998597D01*
X82186402Y-101831506D01*
X82186396Y-101831501D01*
X82000842Y-101701575D01*
X81957217Y-101646998D01*
X81950023Y-101577500D01*
X81981546Y-101515145D01*
X82000842Y-101498425D01*
X82023026Y-101482891D01*
X82186401Y-101368495D01*
X82353495Y-101201401D01*
X82489035Y-101007830D01*
X82588903Y-100793663D01*
X82650063Y-100565408D01*
X82670659Y-100330000D01*
X82650063Y-100094592D01*
X82588903Y-99866337D01*
X82489035Y-99652171D01*
X82353495Y-99458599D01*
X82231567Y-99336671D01*
X82198084Y-99275351D01*
X82203068Y-99205659D01*
X82244939Y-99149725D01*
X82275915Y-99132810D01*
X82407331Y-99083796D01*
X82522546Y-98997546D01*
X82608796Y-98882331D01*
X82659091Y-98747483D01*
X82665500Y-98687873D01*
X82665499Y-96892128D01*
X82659091Y-96832517D01*
X82608796Y-96697669D01*
X82608794Y-96697666D01*
X82607991Y-96696593D01*
X82607522Y-96695337D01*
X82604546Y-96689886D01*
X82605330Y-96689457D01*
X82583577Y-96631127D01*
X82598431Y-96562855D01*
X82619579Y-96534606D01*
X82665047Y-96489139D01*
X82795568Y-96302734D01*
X82891739Y-96096496D01*
X82950635Y-95876692D01*
X82965500Y-95706784D01*
X82965500Y-94793216D01*
X82950635Y-94623308D01*
X82891739Y-94403504D01*
X82795568Y-94197266D01*
X82665047Y-94010861D01*
X82665045Y-94010858D01*
X82504141Y-93849954D01*
X82378152Y-93761737D01*
X82334527Y-93707161D01*
X82327333Y-93637662D01*
X82351419Y-93586556D01*
X82350389Y-93585835D01*
X82353490Y-93581405D01*
X82353495Y-93581401D01*
X82489035Y-93387830D01*
X82588903Y-93173663D01*
X82650063Y-92945408D01*
X82670659Y-92710000D01*
X82650063Y-92474592D01*
X82588903Y-92246337D01*
X82489035Y-92032171D01*
X82353495Y-91838599D01*
X82350390Y-91834164D01*
X82351569Y-91833337D01*
X82326273Y-91775526D01*
X82337316Y-91706535D01*
X82378150Y-91658264D01*
X82504139Y-91570047D01*
X82665047Y-91409139D01*
X82795568Y-91222734D01*
X82891739Y-91016496D01*
X82901486Y-90980120D01*
X82937851Y-90920460D01*
X83000697Y-90889930D01*
X83070073Y-90898224D01*
G37*
%TD.AperFunction*%
%TA.AperFunction,NonConductor*%
G36*
X86568508Y-118743596D02*
G01*
X86624441Y-118785468D01*
X86626749Y-118788654D01*
X86736505Y-118945401D01*
X86736506Y-118945402D01*
X86903597Y-119112493D01*
X86903603Y-119112498D01*
X87089158Y-119242425D01*
X87132783Y-119297002D01*
X87139977Y-119366500D01*
X87108454Y-119428855D01*
X87089158Y-119445575D01*
X86903597Y-119575505D01*
X86736505Y-119742597D01*
X86600965Y-119936169D01*
X86600964Y-119936171D01*
X86501098Y-120150335D01*
X86501094Y-120150344D01*
X86439938Y-120378586D01*
X86439936Y-120378596D01*
X86419341Y-120613999D01*
X86419341Y-120614000D01*
X86439936Y-120849403D01*
X86439938Y-120849413D01*
X86466856Y-120949872D01*
X86465193Y-121019722D01*
X86434762Y-121069646D01*
X84343208Y-123161199D01*
X84330951Y-123171020D01*
X84331134Y-123171241D01*
X84325123Y-123176213D01*
X84277772Y-123226636D01*
X84256889Y-123247519D01*
X84256877Y-123247532D01*
X84252621Y-123253017D01*
X84248837Y-123257447D01*
X84216937Y-123291418D01*
X84216936Y-123291420D01*
X84207284Y-123308976D01*
X84196610Y-123325226D01*
X84184329Y-123341061D01*
X84184324Y-123341068D01*
X84165815Y-123383838D01*
X84163245Y-123389084D01*
X84140803Y-123429906D01*
X84135822Y-123449307D01*
X84129521Y-123467710D01*
X84121562Y-123486102D01*
X84121561Y-123486105D01*
X84114271Y-123532127D01*
X84113087Y-123537846D01*
X84101501Y-123582972D01*
X84101500Y-123582982D01*
X84101500Y-123603016D01*
X84099973Y-123622415D01*
X84096840Y-123642194D01*
X84096840Y-123642195D01*
X84101225Y-123688583D01*
X84101500Y-123694421D01*
X84101500Y-126399546D01*
X84081815Y-126466585D01*
X84065181Y-126487227D01*
X83328135Y-127224272D01*
X83266812Y-127257757D01*
X83197120Y-127252773D01*
X83141187Y-127210901D01*
X83138899Y-127207742D01*
X83015047Y-127030861D01*
X83015045Y-127030858D01*
X82854141Y-126869954D01*
X82729573Y-126782732D01*
X82667734Y-126739432D01*
X82611221Y-126713079D01*
X82558783Y-126666907D01*
X82539632Y-126599713D01*
X82543852Y-126568608D01*
X82600635Y-126356692D01*
X82615500Y-126186784D01*
X82615500Y-125273216D01*
X82600635Y-125103308D01*
X82541739Y-124883504D01*
X82473018Y-124736134D01*
X82462527Y-124667058D01*
X82491047Y-124603274D01*
X82500415Y-124593980D01*
X82500311Y-124593876D01*
X82665045Y-124429141D01*
X82665047Y-124429139D01*
X82795568Y-124242734D01*
X82891739Y-124036496D01*
X82950635Y-123816692D01*
X82965500Y-123646784D01*
X82965500Y-122733216D01*
X82950635Y-122563308D01*
X82891739Y-122343504D01*
X82823018Y-122196134D01*
X82812527Y-122127058D01*
X82841047Y-122063274D01*
X82850415Y-122053980D01*
X82850311Y-122053876D01*
X83015045Y-121889141D01*
X83015047Y-121889139D01*
X83145568Y-121702734D01*
X83241739Y-121496496D01*
X83276328Y-121367406D01*
X83312693Y-121307746D01*
X83375540Y-121277217D01*
X83396103Y-121275500D01*
X83592257Y-121275500D01*
X83607877Y-121277224D01*
X83607904Y-121276939D01*
X83615660Y-121277671D01*
X83615667Y-121277673D01*
X83684814Y-121275500D01*
X83714350Y-121275500D01*
X83721228Y-121274630D01*
X83727041Y-121274172D01*
X83773627Y-121272709D01*
X83792869Y-121267117D01*
X83811912Y-121263174D01*
X83831792Y-121260664D01*
X83875122Y-121243507D01*
X83880646Y-121241617D01*
X83887933Y-121239500D01*
X83925390Y-121228618D01*
X83942629Y-121218422D01*
X83960103Y-121209862D01*
X83978727Y-121202488D01*
X83978727Y-121202487D01*
X83978732Y-121202486D01*
X84016449Y-121175082D01*
X84021305Y-121171892D01*
X84061420Y-121148170D01*
X84075589Y-121133999D01*
X84090379Y-121121368D01*
X84106587Y-121109594D01*
X84136299Y-121073676D01*
X84140212Y-121069376D01*
X86437495Y-118772095D01*
X86498816Y-118738612D01*
X86568508Y-118743596D01*
G37*
%TD.AperFunction*%
%TA.AperFunction,NonConductor*%
G36*
X85073139Y-78105501D02*
G01*
X85122561Y-78105501D01*
X85127425Y-78105691D01*
X85181976Y-78109985D01*
X85322578Y-78122286D01*
X85340695Y-78125236D01*
X85421019Y-78144521D01*
X85531718Y-78174183D01*
X85539398Y-78176790D01*
X85625972Y-78212650D01*
X85724964Y-78258811D01*
X85731148Y-78262134D01*
X85811769Y-78311539D01*
X85814927Y-78313610D01*
X85901589Y-78374291D01*
X85906296Y-78377935D01*
X85978837Y-78439891D01*
X85982413Y-78443197D01*
X86056801Y-78517585D01*
X86060107Y-78521161D01*
X86122063Y-78593702D01*
X86125707Y-78598409D01*
X86186388Y-78685071D01*
X86188465Y-78688238D01*
X86237862Y-78768847D01*
X86241192Y-78775045D01*
X86287354Y-78874037D01*
X86323205Y-78960592D01*
X86325815Y-78968279D01*
X86355484Y-79079003D01*
X86374759Y-79159291D01*
X86377713Y-79177430D01*
X86390019Y-79318084D01*
X86394308Y-79372576D01*
X86394499Y-79377442D01*
X86394501Y-107949499D01*
X86394501Y-108049994D01*
X86425784Y-108247509D01*
X86487583Y-108437706D01*
X86578371Y-108615887D01*
X86695917Y-108777675D01*
X86837325Y-108919083D01*
X86999113Y-109036629D01*
X87083299Y-109079523D01*
X87177293Y-109127416D01*
X87177295Y-109127416D01*
X87177298Y-109127418D01*
X87367491Y-109189216D01*
X87480180Y-109207063D01*
X87565006Y-109220499D01*
X87664902Y-109220499D01*
X100423139Y-109220499D01*
X100423143Y-109220501D01*
X100472560Y-109220501D01*
X100477426Y-109220692D01*
X100531947Y-109224983D01*
X100540720Y-109225750D01*
X100672574Y-109237285D01*
X100690684Y-109240234D01*
X100771041Y-109259526D01*
X100881711Y-109289180D01*
X100889387Y-109291784D01*
X100975989Y-109327656D01*
X101074953Y-109373805D01*
X101081135Y-109377126D01*
X101161795Y-109426554D01*
X101164909Y-109428595D01*
X101215741Y-109464188D01*
X101251593Y-109489293D01*
X101256295Y-109492934D01*
X101328846Y-109554898D01*
X101332410Y-109558193D01*
X101406806Y-109632589D01*
X101410104Y-109636156D01*
X101432455Y-109662326D01*
X101472062Y-109708700D01*
X101475707Y-109713406D01*
X101536375Y-109800050D01*
X101538452Y-109803217D01*
X101587869Y-109883860D01*
X101591199Y-109890057D01*
X101637350Y-109989027D01*
X101673208Y-110075598D01*
X101675818Y-110083285D01*
X101705485Y-110194003D01*
X101724760Y-110274290D01*
X101727714Y-110292429D01*
X101740013Y-110433003D01*
X101744309Y-110487584D01*
X101744500Y-110492450D01*
X101744500Y-128902556D01*
X101744309Y-128907423D01*
X101740022Y-128961886D01*
X101727713Y-129102574D01*
X101724759Y-129120712D01*
X101705494Y-129200960D01*
X101675815Y-129311721D01*
X101673206Y-129319408D01*
X101637363Y-129405942D01*
X101591191Y-129504957D01*
X101587861Y-129511155D01*
X101538470Y-129591754D01*
X101536393Y-129594921D01*
X101475699Y-129681602D01*
X101472055Y-129686308D01*
X101410130Y-129758813D01*
X101406824Y-129762389D01*
X101332394Y-129836819D01*
X101328818Y-129840125D01*
X101256309Y-129902053D01*
X101251603Y-129905698D01*
X101164918Y-129966395D01*
X101161751Y-129968472D01*
X101081162Y-130017857D01*
X101074964Y-130021187D01*
X100975931Y-130067368D01*
X100889412Y-130103205D01*
X100881724Y-130105814D01*
X100770958Y-130135494D01*
X100690713Y-130154759D01*
X100672573Y-130157713D01*
X100531801Y-130170029D01*
X100477439Y-130174308D01*
X100472572Y-130174499D01*
X82366755Y-130174499D01*
X82299716Y-130154814D01*
X82253961Y-130102010D01*
X82244017Y-130032852D01*
X82273042Y-129969296D01*
X82331820Y-129931522D01*
X82334662Y-129930724D01*
X82441626Y-129902063D01*
X82461496Y-129896739D01*
X82667734Y-129800568D01*
X82854139Y-129670047D01*
X83015047Y-129509139D01*
X83145568Y-129322734D01*
X83241739Y-129116496D01*
X83286550Y-128949256D01*
X83322913Y-128889599D01*
X83360676Y-128866060D01*
X83363747Y-128864843D01*
X83367118Y-128863510D01*
X83372647Y-128861617D01*
X83387581Y-128857278D01*
X83417390Y-128848618D01*
X83434629Y-128838422D01*
X83452103Y-128829862D01*
X83470727Y-128822488D01*
X83470727Y-128822487D01*
X83470732Y-128822486D01*
X83508449Y-128795082D01*
X83513305Y-128791892D01*
X83553420Y-128768170D01*
X83567589Y-128753999D01*
X83582379Y-128741368D01*
X83598587Y-128729594D01*
X83628299Y-128693676D01*
X83632212Y-128689376D01*
X85110787Y-127210801D01*
X85123042Y-127200986D01*
X85122859Y-127200764D01*
X85128866Y-127195792D01*
X85128877Y-127195786D01*
X85159775Y-127162882D01*
X85176227Y-127145364D01*
X85186671Y-127134918D01*
X85197120Y-127124471D01*
X85201379Y-127118978D01*
X85205152Y-127114561D01*
X85237062Y-127080582D01*
X85246713Y-127063024D01*
X85257396Y-127046761D01*
X85269673Y-127030936D01*
X85288185Y-126988153D01*
X85290738Y-126982941D01*
X85313197Y-126942092D01*
X85318180Y-126922680D01*
X85324481Y-126904280D01*
X85332437Y-126885896D01*
X85339729Y-126839852D01*
X85340906Y-126834171D01*
X85352500Y-126789019D01*
X85352500Y-126768983D01*
X85354027Y-126749582D01*
X85357160Y-126729804D01*
X85352775Y-126683415D01*
X85352500Y-126677577D01*
X85352500Y-123972452D01*
X85372185Y-123905413D01*
X85388819Y-123884771D01*
X86207660Y-123065930D01*
X86268983Y-123032445D01*
X86338675Y-123037429D01*
X86394608Y-123079301D01*
X86419025Y-123144765D01*
X86419341Y-123153611D01*
X86419341Y-123154000D01*
X86439936Y-123389403D01*
X86439938Y-123389413D01*
X86501094Y-123617655D01*
X86501096Y-123617659D01*
X86501097Y-123617663D01*
X86593904Y-123816687D01*
X86600965Y-123831830D01*
X86600967Y-123831834D01*
X86699430Y-123972452D01*
X86736501Y-124025396D01*
X86736506Y-124025402D01*
X86903597Y-124192493D01*
X86903603Y-124192498D01*
X87089158Y-124322425D01*
X87132783Y-124377002D01*
X87139977Y-124446500D01*
X87108454Y-124508855D01*
X87089158Y-124525575D01*
X86903597Y-124655505D01*
X86736505Y-124822597D01*
X86600965Y-125016169D01*
X86600964Y-125016171D01*
X86501098Y-125230335D01*
X86501094Y-125230344D01*
X86439938Y-125458586D01*
X86439936Y-125458596D01*
X86419341Y-125693999D01*
X86419341Y-125694000D01*
X86439936Y-125929403D01*
X86439938Y-125929413D01*
X86501094Y-126157655D01*
X86501096Y-126157659D01*
X86501097Y-126157663D01*
X86593904Y-126356687D01*
X86600965Y-126371830D01*
X86600967Y-126371834D01*
X86667313Y-126466585D01*
X86736505Y-126565401D01*
X86903599Y-126732495D01*
X86975345Y-126782732D01*
X87097165Y-126868032D01*
X87097167Y-126868033D01*
X87097170Y-126868035D01*
X87311337Y-126967903D01*
X87311343Y-126967904D01*
X87311344Y-126967905D01*
X87315957Y-126969141D01*
X87539592Y-127029063D01*
X87727918Y-127045539D01*
X87774999Y-127049659D01*
X87775000Y-127049659D01*
X87775001Y-127049659D01*
X87814234Y-127046226D01*
X88010408Y-127029063D01*
X88238663Y-126967903D01*
X88452830Y-126868035D01*
X88646401Y-126732495D01*
X88813495Y-126565401D01*
X88948652Y-126372377D01*
X89003229Y-126328752D01*
X89050227Y-126319500D01*
X93415236Y-126319500D01*
X93482275Y-126339185D01*
X93528030Y-126391989D01*
X93531418Y-126400167D01*
X93582202Y-126536328D01*
X93582206Y-126536335D01*
X93668452Y-126651544D01*
X93668455Y-126651547D01*
X93783664Y-126737793D01*
X93783671Y-126737797D01*
X93918517Y-126788091D01*
X93918516Y-126788091D01*
X93925444Y-126788835D01*
X93978127Y-126794500D01*
X97073872Y-126794499D01*
X97133483Y-126788091D01*
X97268331Y-126737796D01*
X97383546Y-126651546D01*
X97469796Y-126536331D01*
X97520091Y-126401483D01*
X97526500Y-126341873D01*
X97526499Y-125046128D01*
X97521299Y-124997757D01*
X97520091Y-124986516D01*
X97469797Y-124851671D01*
X97469793Y-124851664D01*
X97383547Y-124736455D01*
X97383544Y-124736452D01*
X97268335Y-124650206D01*
X97268328Y-124650202D01*
X97133482Y-124599908D01*
X97133483Y-124599908D01*
X97073883Y-124593501D01*
X97073881Y-124593500D01*
X97073873Y-124593500D01*
X97073864Y-124593500D01*
X93978129Y-124593500D01*
X93978123Y-124593501D01*
X93918516Y-124599908D01*
X93783671Y-124650202D01*
X93783664Y-124650206D01*
X93668455Y-124736452D01*
X93668452Y-124736455D01*
X93582206Y-124851664D01*
X93582202Y-124851671D01*
X93531418Y-124987833D01*
X93489547Y-125043767D01*
X93424083Y-125068184D01*
X93415236Y-125068500D01*
X89050227Y-125068500D01*
X88983188Y-125048815D01*
X88948652Y-125015623D01*
X88813494Y-124822597D01*
X88646402Y-124655506D01*
X88646396Y-124655501D01*
X88460842Y-124525575D01*
X88417217Y-124470998D01*
X88410023Y-124401500D01*
X88441546Y-124339145D01*
X88460842Y-124322425D01*
X88483026Y-124306891D01*
X88646401Y-124192495D01*
X88813495Y-124025401D01*
X88948652Y-123832377D01*
X89003229Y-123788752D01*
X89050227Y-123779500D01*
X90105236Y-123779500D01*
X90172275Y-123799185D01*
X90218030Y-123851989D01*
X90221418Y-123860167D01*
X90272202Y-123996328D01*
X90272206Y-123996335D01*
X90358452Y-124111544D01*
X90358455Y-124111547D01*
X90473664Y-124197793D01*
X90473671Y-124197797D01*
X90608517Y-124248091D01*
X90608516Y-124248091D01*
X90615444Y-124248835D01*
X90668127Y-124254500D01*
X93763872Y-124254499D01*
X93823483Y-124248091D01*
X93958331Y-124197796D01*
X94073546Y-124111546D01*
X94159796Y-123996331D01*
X94210091Y-123861483D01*
X94216500Y-123801873D01*
X94216499Y-122506128D01*
X94211299Y-122457757D01*
X94210091Y-122446516D01*
X94159797Y-122311671D01*
X94159793Y-122311664D01*
X94073547Y-122196455D01*
X94073544Y-122196452D01*
X93958335Y-122110206D01*
X93958328Y-122110202D01*
X93823482Y-122059908D01*
X93823483Y-122059908D01*
X93763883Y-122053501D01*
X93763881Y-122053500D01*
X93763873Y-122053500D01*
X93763864Y-122053500D01*
X90668129Y-122053500D01*
X90668123Y-122053501D01*
X90608516Y-122059908D01*
X90473671Y-122110202D01*
X90473664Y-122110206D01*
X90358455Y-122196452D01*
X90358452Y-122196455D01*
X90272206Y-122311664D01*
X90272202Y-122311671D01*
X90221418Y-122447833D01*
X90179547Y-122503767D01*
X90114083Y-122528184D01*
X90105236Y-122528500D01*
X89050227Y-122528500D01*
X88983188Y-122508815D01*
X88948652Y-122475623D01*
X88813494Y-122282597D01*
X88646402Y-122115506D01*
X88646396Y-122115501D01*
X88460842Y-121985575D01*
X88417217Y-121930998D01*
X88410023Y-121861500D01*
X88441546Y-121799145D01*
X88460842Y-121782425D01*
X88483026Y-121766891D01*
X88646401Y-121652495D01*
X88813495Y-121485401D01*
X88948652Y-121292377D01*
X89003229Y-121248752D01*
X89050227Y-121239500D01*
X93415236Y-121239500D01*
X93482275Y-121259185D01*
X93528030Y-121311989D01*
X93531418Y-121320167D01*
X93582202Y-121456328D01*
X93582206Y-121456335D01*
X93668452Y-121571544D01*
X93668455Y-121571547D01*
X93783664Y-121657793D01*
X93783671Y-121657797D01*
X93918517Y-121708091D01*
X93918516Y-121708091D01*
X93925444Y-121708835D01*
X93978127Y-121714500D01*
X97073872Y-121714499D01*
X97133483Y-121708091D01*
X97268331Y-121657796D01*
X97383546Y-121571546D01*
X97469796Y-121456331D01*
X97520091Y-121321483D01*
X97526500Y-121261873D01*
X97526499Y-119966128D01*
X97521299Y-119917757D01*
X97520091Y-119906516D01*
X97469797Y-119771671D01*
X97469793Y-119771664D01*
X97383547Y-119656455D01*
X97383544Y-119656452D01*
X97268335Y-119570206D01*
X97268328Y-119570202D01*
X97133482Y-119519908D01*
X97133483Y-119519908D01*
X97073883Y-119513501D01*
X97073881Y-119513500D01*
X97073873Y-119513500D01*
X97073864Y-119513500D01*
X93978129Y-119513500D01*
X93978123Y-119513501D01*
X93918516Y-119519908D01*
X93783671Y-119570202D01*
X93783664Y-119570206D01*
X93668455Y-119656452D01*
X93668452Y-119656455D01*
X93582206Y-119771664D01*
X93582202Y-119771671D01*
X93531418Y-119907833D01*
X93489547Y-119963767D01*
X93424083Y-119988184D01*
X93415236Y-119988500D01*
X89050227Y-119988500D01*
X88983188Y-119968815D01*
X88948652Y-119935623D01*
X88813494Y-119742597D01*
X88646402Y-119575506D01*
X88646396Y-119575501D01*
X88460842Y-119445575D01*
X88417217Y-119390998D01*
X88410023Y-119321500D01*
X88441546Y-119259145D01*
X88460842Y-119242425D01*
X88483026Y-119226891D01*
X88646401Y-119112495D01*
X88813495Y-118945401D01*
X88948652Y-118752377D01*
X89003229Y-118708752D01*
X89050227Y-118699500D01*
X90105236Y-118699500D01*
X90172275Y-118719185D01*
X90218030Y-118771989D01*
X90221418Y-118780167D01*
X90272202Y-118916328D01*
X90272206Y-118916335D01*
X90358452Y-119031544D01*
X90358455Y-119031547D01*
X90473664Y-119117793D01*
X90473671Y-119117797D01*
X90608517Y-119168091D01*
X90608516Y-119168091D01*
X90615444Y-119168835D01*
X90668127Y-119174500D01*
X93763872Y-119174499D01*
X93823483Y-119168091D01*
X93958331Y-119117796D01*
X94073546Y-119031546D01*
X94159796Y-118916331D01*
X94210091Y-118781483D01*
X94216500Y-118721873D01*
X94216499Y-117426128D01*
X94211299Y-117377757D01*
X94210091Y-117366516D01*
X94159797Y-117231671D01*
X94159793Y-117231664D01*
X94073547Y-117116455D01*
X94073544Y-117116452D01*
X93958335Y-117030206D01*
X93958328Y-117030202D01*
X93823482Y-116979908D01*
X93823483Y-116979908D01*
X93763883Y-116973501D01*
X93763881Y-116973500D01*
X93763873Y-116973500D01*
X93763864Y-116973500D01*
X90668129Y-116973500D01*
X90668123Y-116973501D01*
X90608516Y-116979908D01*
X90473671Y-117030202D01*
X90473664Y-117030206D01*
X90358455Y-117116452D01*
X90358452Y-117116455D01*
X90272206Y-117231664D01*
X90272202Y-117231671D01*
X90221418Y-117367833D01*
X90179547Y-117423767D01*
X90114083Y-117448184D01*
X90105236Y-117448500D01*
X89050227Y-117448500D01*
X88983188Y-117428815D01*
X88948652Y-117395623D01*
X88813494Y-117202597D01*
X88646402Y-117035506D01*
X88646396Y-117035501D01*
X88460842Y-116905575D01*
X88417217Y-116850998D01*
X88410023Y-116781500D01*
X88441546Y-116719145D01*
X88460842Y-116702425D01*
X88537146Y-116648996D01*
X88646401Y-116572495D01*
X88813495Y-116405401D01*
X88948652Y-116212377D01*
X89003229Y-116168752D01*
X89050227Y-116159500D01*
X93415236Y-116159500D01*
X93482275Y-116179185D01*
X93528030Y-116231989D01*
X93531418Y-116240167D01*
X93582202Y-116376328D01*
X93582206Y-116376335D01*
X93668452Y-116491544D01*
X93668455Y-116491547D01*
X93783664Y-116577793D01*
X93783671Y-116577797D01*
X93918517Y-116628091D01*
X93918516Y-116628091D01*
X93925444Y-116628835D01*
X93978127Y-116634500D01*
X97073872Y-116634499D01*
X97133483Y-116628091D01*
X97268331Y-116577796D01*
X97383546Y-116491546D01*
X97469796Y-116376331D01*
X97520091Y-116241483D01*
X97526500Y-116181873D01*
X97526499Y-114886128D01*
X97521299Y-114837757D01*
X97520091Y-114826516D01*
X97469797Y-114691671D01*
X97469793Y-114691664D01*
X97383547Y-114576455D01*
X97383544Y-114576452D01*
X97268335Y-114490206D01*
X97268328Y-114490202D01*
X97133482Y-114439908D01*
X97133483Y-114439908D01*
X97073883Y-114433501D01*
X97073881Y-114433500D01*
X97073873Y-114433500D01*
X97073864Y-114433500D01*
X93978129Y-114433500D01*
X93978123Y-114433501D01*
X93918516Y-114439908D01*
X93783671Y-114490202D01*
X93783664Y-114490206D01*
X93668455Y-114576452D01*
X93668452Y-114576455D01*
X93582206Y-114691664D01*
X93582202Y-114691671D01*
X93531418Y-114827833D01*
X93489547Y-114883767D01*
X93424083Y-114908184D01*
X93415236Y-114908500D01*
X89050227Y-114908500D01*
X88983188Y-114888815D01*
X88948652Y-114855623D01*
X88813496Y-114662600D01*
X88813495Y-114662599D01*
X88691567Y-114540671D01*
X88658084Y-114479351D01*
X88663068Y-114409659D01*
X88704939Y-114353725D01*
X88735915Y-114336810D01*
X88867331Y-114287796D01*
X88982546Y-114201546D01*
X89068796Y-114086331D01*
X89119091Y-113951483D01*
X89125500Y-113891873D01*
X89125500Y-113743500D01*
X89145185Y-113676461D01*
X89197989Y-113630706D01*
X89249500Y-113619500D01*
X90105236Y-113619500D01*
X90172275Y-113639185D01*
X90218030Y-113691989D01*
X90221418Y-113700167D01*
X90272202Y-113836328D01*
X90272206Y-113836335D01*
X90358452Y-113951544D01*
X90358455Y-113951547D01*
X90473664Y-114037793D01*
X90473671Y-114037797D01*
X90608517Y-114088091D01*
X90608516Y-114088091D01*
X90615444Y-114088835D01*
X90668127Y-114094500D01*
X93763872Y-114094499D01*
X93823483Y-114088091D01*
X93958331Y-114037796D01*
X94073546Y-113951546D01*
X94159796Y-113836331D01*
X94210091Y-113701483D01*
X94216500Y-113641873D01*
X94216499Y-112346128D01*
X94211112Y-112296011D01*
X94210091Y-112286516D01*
X94159797Y-112151671D01*
X94159793Y-112151664D01*
X94073547Y-112036455D01*
X94073544Y-112036452D01*
X93958335Y-111950206D01*
X93958328Y-111950202D01*
X93823482Y-111899908D01*
X93823483Y-111899908D01*
X93763883Y-111893501D01*
X93763881Y-111893500D01*
X93763873Y-111893500D01*
X93763864Y-111893500D01*
X90668129Y-111893500D01*
X90668123Y-111893501D01*
X90608516Y-111899908D01*
X90473671Y-111950202D01*
X90473664Y-111950206D01*
X90358455Y-112036452D01*
X90358452Y-112036455D01*
X90272206Y-112151664D01*
X90272202Y-112151671D01*
X90221418Y-112287833D01*
X90179547Y-112343767D01*
X90114083Y-112368184D01*
X90105236Y-112368500D01*
X89249499Y-112368500D01*
X89182460Y-112348815D01*
X89136705Y-112296011D01*
X89125499Y-112244500D01*
X89125499Y-112096129D01*
X89125498Y-112096123D01*
X89125497Y-112096116D01*
X89119091Y-112036517D01*
X89113142Y-112020568D01*
X89068797Y-111901671D01*
X89068793Y-111901664D01*
X88982547Y-111786455D01*
X88982544Y-111786452D01*
X88867335Y-111700206D01*
X88867328Y-111700202D01*
X88732482Y-111649908D01*
X88732483Y-111649908D01*
X88672883Y-111643501D01*
X88672881Y-111643500D01*
X88672873Y-111643500D01*
X88672864Y-111643500D01*
X86877129Y-111643500D01*
X86877123Y-111643501D01*
X86817516Y-111649908D01*
X86682671Y-111700202D01*
X86682664Y-111700206D01*
X86567455Y-111786452D01*
X86567452Y-111786455D01*
X86481206Y-111901664D01*
X86481202Y-111901671D01*
X86430908Y-112036517D01*
X86424501Y-112096116D01*
X86424501Y-112096123D01*
X86424500Y-112096135D01*
X86424500Y-112244500D01*
X86404815Y-112311539D01*
X86352011Y-112357294D01*
X86300500Y-112368500D01*
X86053453Y-112368500D01*
X85986414Y-112348815D01*
X85965772Y-112332181D01*
X84880819Y-111247228D01*
X84847334Y-111185905D01*
X84844500Y-111159547D01*
X84844500Y-91232737D01*
X84846224Y-91217123D01*
X84845938Y-91217096D01*
X84846672Y-91209333D01*
X84844500Y-91140203D01*
X84844500Y-91110651D01*
X84844500Y-91110650D01*
X84843629Y-91103759D01*
X84843172Y-91097945D01*
X84841709Y-91051373D01*
X84836121Y-91032139D01*
X84832174Y-91013081D01*
X84829664Y-90993208D01*
X84812507Y-90949875D01*
X84810614Y-90944346D01*
X84797618Y-90899614D01*
X84797617Y-90899610D01*
X84787420Y-90882368D01*
X84778863Y-90864902D01*
X84771486Y-90846268D01*
X84744083Y-90808550D01*
X84740900Y-90803705D01*
X84717170Y-90763579D01*
X84717165Y-90763573D01*
X84703005Y-90749413D01*
X84690370Y-90734620D01*
X84678593Y-90718412D01*
X84642693Y-90688713D01*
X84638381Y-90684790D01*
X83739803Y-89786212D01*
X83729980Y-89773950D01*
X83729759Y-89774134D01*
X83724786Y-89768123D01*
X83674364Y-89720773D01*
X83663919Y-89710328D01*
X83653475Y-89699883D01*
X83647986Y-89695625D01*
X83643561Y-89691847D01*
X83609582Y-89659938D01*
X83609580Y-89659936D01*
X83609577Y-89659935D01*
X83592029Y-89650288D01*
X83575763Y-89639604D01*
X83559933Y-89627325D01*
X83517168Y-89608818D01*
X83511922Y-89606248D01*
X83471093Y-89583803D01*
X83471092Y-89583802D01*
X83451693Y-89578822D01*
X83433281Y-89572518D01*
X83414898Y-89564562D01*
X83414892Y-89564560D01*
X83368874Y-89557272D01*
X83363152Y-89556087D01*
X83318021Y-89544500D01*
X83318019Y-89544500D01*
X83297984Y-89544500D01*
X83278586Y-89542973D01*
X83271162Y-89541797D01*
X83258805Y-89539840D01*
X83258804Y-89539840D01*
X83212416Y-89544225D01*
X83206578Y-89544500D01*
X83046103Y-89544500D01*
X82979064Y-89524815D01*
X82933309Y-89472011D01*
X82926328Y-89452593D01*
X82891741Y-89323511D01*
X82891738Y-89323502D01*
X82795568Y-89117266D01*
X82665047Y-88930861D01*
X82665045Y-88930858D01*
X82504141Y-88769954D01*
X82378152Y-88681737D01*
X82334527Y-88627161D01*
X82327333Y-88557662D01*
X82351419Y-88506556D01*
X82350389Y-88505835D01*
X82353490Y-88501405D01*
X82353495Y-88501401D01*
X82489035Y-88307830D01*
X82588903Y-88093663D01*
X82650063Y-87865408D01*
X82670659Y-87630000D01*
X82650063Y-87394592D01*
X82588903Y-87166337D01*
X82489035Y-86952171D01*
X82353495Y-86758599D01*
X82353494Y-86758597D01*
X82186402Y-86591506D01*
X82186396Y-86591501D01*
X82016173Y-86472310D01*
X81972548Y-86417733D01*
X81965354Y-86348235D01*
X81985719Y-86299614D01*
X82095568Y-86142734D01*
X82191739Y-85936496D01*
X82250635Y-85716692D01*
X82265500Y-85546784D01*
X82265500Y-84633216D01*
X82250635Y-84463308D01*
X82193853Y-84251393D01*
X82195516Y-84181543D01*
X82234679Y-84123681D01*
X82261216Y-84106922D01*
X82317734Y-84080568D01*
X82504139Y-83950047D01*
X82665047Y-83789139D01*
X82795568Y-83602734D01*
X82891739Y-83396496D01*
X82950635Y-83176692D01*
X82965500Y-83006784D01*
X82965500Y-82093216D01*
X82950635Y-81923308D01*
X82891739Y-81703504D01*
X82795568Y-81497266D01*
X82665047Y-81310861D01*
X82665045Y-81310858D01*
X82504141Y-81149954D01*
X82378152Y-81061737D01*
X82334527Y-81007161D01*
X82327333Y-80937662D01*
X82351419Y-80886556D01*
X82350389Y-80885835D01*
X82353490Y-80881405D01*
X82353495Y-80881401D01*
X82489035Y-80687830D01*
X82588903Y-80473663D01*
X82650063Y-80245408D01*
X82670659Y-80010000D01*
X82650063Y-79774592D01*
X82588903Y-79546337D01*
X82489035Y-79332171D01*
X82479251Y-79318197D01*
X82353494Y-79138597D01*
X82186402Y-78971506D01*
X82186395Y-78971501D01*
X82170815Y-78960592D01*
X82147521Y-78944281D01*
X81992834Y-78835967D01*
X81992830Y-78835965D01*
X81912827Y-78798659D01*
X81778663Y-78736097D01*
X81778659Y-78736096D01*
X81778655Y-78736094D01*
X81550413Y-78674938D01*
X81550403Y-78674936D01*
X81315001Y-78654341D01*
X81314999Y-78654341D01*
X81079596Y-78674936D01*
X81079586Y-78674938D01*
X80851344Y-78736094D01*
X80851335Y-78736098D01*
X80637171Y-78835964D01*
X80637169Y-78835965D01*
X80443597Y-78971505D01*
X80276505Y-79138597D01*
X80140965Y-79332169D01*
X80140964Y-79332171D01*
X80041098Y-79546335D01*
X80041094Y-79546344D01*
X79979938Y-79774586D01*
X79979936Y-79774596D01*
X79959341Y-80009999D01*
X79959341Y-80010000D01*
X79979936Y-80245403D01*
X79979938Y-80245413D01*
X80041094Y-80473655D01*
X80041096Y-80473659D01*
X80041097Y-80473663D01*
X80140965Y-80687829D01*
X80140965Y-80687830D01*
X80140967Y-80687834D01*
X80276501Y-80881395D01*
X80276506Y-80881402D01*
X80443597Y-81048493D01*
X80443603Y-81048498D01*
X80506487Y-81092530D01*
X80588497Y-81149954D01*
X80613826Y-81167689D01*
X80657451Y-81222266D01*
X80664645Y-81291764D01*
X80644279Y-81340386D01*
X80534432Y-81497266D01*
X80534432Y-81497267D01*
X80534430Y-81497270D01*
X80438261Y-81703502D01*
X80438258Y-81703511D01*
X80379366Y-81923302D01*
X80379364Y-81923312D01*
X80364500Y-82093216D01*
X80364500Y-83006784D01*
X80379364Y-83176687D01*
X80379366Y-83176697D01*
X80436146Y-83388605D01*
X80434483Y-83458455D01*
X80395320Y-83516317D01*
X80368777Y-83533080D01*
X80312266Y-83559431D01*
X80125858Y-83689954D01*
X79964954Y-83850858D01*
X79834432Y-84037265D01*
X79834431Y-84037267D01*
X79738261Y-84243502D01*
X79738258Y-84243511D01*
X79679366Y-84463302D01*
X79679364Y-84463312D01*
X79664500Y-84633216D01*
X79664500Y-85546784D01*
X79679364Y-85716687D01*
X79679366Y-85716697D01*
X79738258Y-85936488D01*
X79738261Y-85936497D01*
X79834431Y-86142732D01*
X79834432Y-86142734D01*
X79964954Y-86329141D01*
X80125857Y-86490044D01*
X80125860Y-86490046D01*
X80125861Y-86490047D01*
X80251847Y-86578262D01*
X80295471Y-86632837D01*
X80302665Y-86702335D01*
X80278590Y-86753450D01*
X80279610Y-86754164D01*
X80140965Y-86952169D01*
X80140964Y-86952171D01*
X80041098Y-87166335D01*
X80041094Y-87166344D01*
X79979938Y-87394586D01*
X79979936Y-87394596D01*
X79959341Y-87629999D01*
X79959341Y-87630000D01*
X79979936Y-87865403D01*
X79979938Y-87865413D01*
X80041094Y-88093655D01*
X80041096Y-88093659D01*
X80041097Y-88093663D01*
X80140965Y-88307829D01*
X80140965Y-88307830D01*
X80140967Y-88307834D01*
X80276501Y-88501395D01*
X80276506Y-88501402D01*
X80443597Y-88668493D01*
X80443603Y-88668498D01*
X80506487Y-88712530D01*
X80588497Y-88769954D01*
X80613826Y-88787689D01*
X80657451Y-88842266D01*
X80664645Y-88911764D01*
X80644279Y-88960386D01*
X80534432Y-89117266D01*
X80534432Y-89117267D01*
X80534430Y-89117270D01*
X80438261Y-89323502D01*
X80438258Y-89323511D01*
X80379366Y-89543302D01*
X80379364Y-89543312D01*
X80364500Y-89713216D01*
X80364500Y-90626784D01*
X80379364Y-90796687D01*
X80379366Y-90796697D01*
X80438258Y-91016488D01*
X80438261Y-91016497D01*
X80534431Y-91222732D01*
X80534432Y-91222734D01*
X80644278Y-91379612D01*
X80666605Y-91445818D01*
X80649594Y-91513586D01*
X80613827Y-91552310D01*
X80443594Y-91671508D01*
X80276505Y-91838597D01*
X80140965Y-92032169D01*
X80140964Y-92032171D01*
X80041098Y-92246335D01*
X80041094Y-92246344D01*
X79979938Y-92474586D01*
X79979936Y-92474596D01*
X79959341Y-92709999D01*
X79959341Y-92710000D01*
X79979936Y-92945403D01*
X79979938Y-92945413D01*
X80041094Y-93173655D01*
X80041096Y-93173659D01*
X80041097Y-93173663D01*
X80140965Y-93387829D01*
X80140965Y-93387830D01*
X80140967Y-93387834D01*
X80276501Y-93581395D01*
X80276506Y-93581402D01*
X80443597Y-93748493D01*
X80443603Y-93748498D01*
X80506487Y-93792530D01*
X80588497Y-93849954D01*
X80613826Y-93867689D01*
X80657451Y-93922266D01*
X80664645Y-93991764D01*
X80644279Y-94040386D01*
X80534432Y-94197266D01*
X80534432Y-94197267D01*
X80534430Y-94197270D01*
X80438261Y-94403502D01*
X80438258Y-94403511D01*
X80379366Y-94623302D01*
X80379364Y-94623312D01*
X80364500Y-94793216D01*
X80364500Y-95706784D01*
X80379364Y-95876687D01*
X80379366Y-95876697D01*
X80438258Y-96096488D01*
X80438260Y-96096492D01*
X80438261Y-96096496D01*
X80508926Y-96248037D01*
X80516278Y-96263803D01*
X80526770Y-96332881D01*
X80498250Y-96396665D01*
X80439774Y-96434904D01*
X80417150Y-96439498D01*
X80357516Y-96445908D01*
X80222671Y-96496202D01*
X80222664Y-96496206D01*
X80107455Y-96582452D01*
X80107452Y-96582455D01*
X80021206Y-96697664D01*
X80021202Y-96697671D01*
X79970908Y-96832517D01*
X79964501Y-96892116D01*
X79964501Y-96892123D01*
X79964500Y-96892135D01*
X79964500Y-98687870D01*
X79964501Y-98687876D01*
X79970908Y-98747483D01*
X80021202Y-98882328D01*
X80021206Y-98882335D01*
X80107452Y-98997544D01*
X80107455Y-98997547D01*
X80222664Y-99083793D01*
X80222671Y-99083797D01*
X80354081Y-99132810D01*
X80410015Y-99174681D01*
X80434432Y-99240145D01*
X80419580Y-99308418D01*
X80398430Y-99336673D01*
X80276503Y-99458600D01*
X80140965Y-99652169D01*
X80140964Y-99652171D01*
X80041098Y-99866335D01*
X80041094Y-99866344D01*
X79979938Y-100094586D01*
X79979936Y-100094596D01*
X79959341Y-100329999D01*
X79959341Y-100330000D01*
X79979936Y-100565403D01*
X79979938Y-100565413D01*
X80041094Y-100793655D01*
X80041096Y-100793659D01*
X80041097Y-100793663D01*
X80140965Y-101007830D01*
X80140967Y-101007834D01*
X80276501Y-101201395D01*
X80276506Y-101201402D01*
X80443597Y-101368493D01*
X80443603Y-101368498D01*
X80629158Y-101498425D01*
X80672783Y-101553002D01*
X80679977Y-101622500D01*
X80648454Y-101684855D01*
X80629158Y-101701575D01*
X80443597Y-101831505D01*
X80276505Y-101998597D01*
X80140965Y-102192169D01*
X80140964Y-102192171D01*
X80041098Y-102406335D01*
X80041094Y-102406344D01*
X79979938Y-102634586D01*
X79979936Y-102634596D01*
X79959341Y-102869999D01*
X79959341Y-102870000D01*
X79979936Y-103105403D01*
X79979938Y-103105413D01*
X80041094Y-103333655D01*
X80041096Y-103333659D01*
X80041097Y-103333663D01*
X80140965Y-103547830D01*
X80140967Y-103547834D01*
X80276501Y-103741395D01*
X80276506Y-103741402D01*
X80443597Y-103908493D01*
X80443603Y-103908498D01*
X80629158Y-104038425D01*
X80672783Y-104093002D01*
X80679977Y-104162500D01*
X80648454Y-104224855D01*
X80629158Y-104241575D01*
X80443597Y-104371505D01*
X80276505Y-104538597D01*
X80140965Y-104732169D01*
X80140964Y-104732171D01*
X80041098Y-104946335D01*
X80041094Y-104946344D01*
X79979938Y-105174586D01*
X79979936Y-105174596D01*
X79959341Y-105409999D01*
X79959341Y-105410000D01*
X79979936Y-105645403D01*
X79979938Y-105645413D01*
X80041094Y-105873655D01*
X80041096Y-105873659D01*
X80041097Y-105873663D01*
X80140965Y-106087830D01*
X80140967Y-106087834D01*
X80276501Y-106281395D01*
X80276506Y-106281402D01*
X80443597Y-106448493D01*
X80443603Y-106448498D01*
X80629158Y-106578425D01*
X80672783Y-106633002D01*
X80679977Y-106702500D01*
X80648454Y-106764855D01*
X80629158Y-106781575D01*
X80443597Y-106911505D01*
X80276505Y-107078597D01*
X80140965Y-107272169D01*
X80140964Y-107272171D01*
X80041098Y-107486335D01*
X80041094Y-107486344D01*
X79979938Y-107714586D01*
X79979936Y-107714596D01*
X79959341Y-107949999D01*
X79959341Y-107950000D01*
X79979936Y-108185403D01*
X79979938Y-108185413D01*
X80041094Y-108413655D01*
X80041096Y-108413659D01*
X80041097Y-108413663D01*
X80135396Y-108615887D01*
X80140965Y-108627830D01*
X80140967Y-108627834D01*
X80276501Y-108821395D01*
X80276506Y-108821402D01*
X80443597Y-108988493D01*
X80443603Y-108988498D01*
X80506487Y-109032530D01*
X80588497Y-109089954D01*
X80613826Y-109107689D01*
X80657451Y-109162266D01*
X80664645Y-109231764D01*
X80644279Y-109280386D01*
X80534432Y-109437266D01*
X80534432Y-109437267D01*
X80534430Y-109437270D01*
X80438261Y-109643502D01*
X80438258Y-109643511D01*
X80379366Y-109863302D01*
X80379364Y-109863312D01*
X80364500Y-110033216D01*
X80364500Y-110946784D01*
X80379364Y-111116687D01*
X80379366Y-111116697D01*
X80438258Y-111336488D01*
X80438261Y-111336497D01*
X80534431Y-111542732D01*
X80534432Y-111542734D01*
X80644278Y-111699612D01*
X80666605Y-111765818D01*
X80649594Y-111833586D01*
X80613827Y-111872310D01*
X80443594Y-111991508D01*
X80276505Y-112158597D01*
X80140965Y-112352169D01*
X80140964Y-112352171D01*
X80041098Y-112566335D01*
X80041094Y-112566344D01*
X79979938Y-112794586D01*
X79979936Y-112794596D01*
X79959341Y-113029999D01*
X79959341Y-113030000D01*
X79979936Y-113265403D01*
X79979938Y-113265413D01*
X80041094Y-113493655D01*
X80041096Y-113493659D01*
X80041097Y-113493663D01*
X80110208Y-113641872D01*
X80140965Y-113707830D01*
X80140967Y-113707834D01*
X80165941Y-113743500D01*
X80269840Y-113891883D01*
X80276501Y-113901395D01*
X80276506Y-113901402D01*
X80443597Y-114068493D01*
X80443603Y-114068498D01*
X80629158Y-114198425D01*
X80672783Y-114253002D01*
X80679977Y-114322500D01*
X80648454Y-114384855D01*
X80629158Y-114401575D01*
X80443597Y-114531505D01*
X80276505Y-114698597D01*
X80140965Y-114892169D01*
X80140964Y-114892171D01*
X80041098Y-115106335D01*
X80041094Y-115106344D01*
X79979938Y-115334586D01*
X79979936Y-115334596D01*
X79959341Y-115569999D01*
X79959341Y-115570000D01*
X79979936Y-115805403D01*
X79979938Y-115805413D01*
X80041094Y-116033655D01*
X80041096Y-116033659D01*
X80041097Y-116033663D01*
X80110208Y-116181872D01*
X80140965Y-116247830D01*
X80140967Y-116247834D01*
X80230940Y-116376328D01*
X80276501Y-116441396D01*
X80276506Y-116441402D01*
X80422777Y-116587673D01*
X80456262Y-116648996D01*
X80451278Y-116718688D01*
X80422778Y-116763035D01*
X80314951Y-116870862D01*
X80184432Y-117057265D01*
X80184431Y-117057267D01*
X80088261Y-117263502D01*
X80088258Y-117263511D01*
X80029366Y-117483302D01*
X80029364Y-117483312D01*
X80014500Y-117653216D01*
X80014500Y-118566784D01*
X80029364Y-118736687D01*
X80029366Y-118736697D01*
X80088258Y-118956488D01*
X80088261Y-118956497D01*
X80184431Y-119162732D01*
X80184432Y-119162734D01*
X80314954Y-119349141D01*
X80475858Y-119510045D01*
X80522693Y-119542839D01*
X80662266Y-119640568D01*
X80696334Y-119656454D01*
X80718776Y-119666919D01*
X80771215Y-119713092D01*
X80790367Y-119780285D01*
X80786146Y-119811394D01*
X80729366Y-120023302D01*
X80729364Y-120023312D01*
X80714500Y-120193216D01*
X80714500Y-121106784D01*
X80729364Y-121276687D01*
X80729366Y-121276697D01*
X80788258Y-121496488D01*
X80788263Y-121496502D01*
X80856980Y-121643866D01*
X80867472Y-121712943D01*
X80838952Y-121776727D01*
X80829584Y-121786021D01*
X80829689Y-121786126D01*
X80825864Y-121789950D01*
X80825861Y-121789953D01*
X80754314Y-121861500D01*
X80664951Y-121950862D01*
X80534432Y-122137265D01*
X80534431Y-122137267D01*
X80438261Y-122343502D01*
X80438258Y-122343511D01*
X80379366Y-122563302D01*
X80379364Y-122563312D01*
X80364500Y-122733216D01*
X80364500Y-123646784D01*
X80379364Y-123816687D01*
X80379366Y-123816697D01*
X80438258Y-124036488D01*
X80438263Y-124036502D01*
X80506980Y-124183866D01*
X80517472Y-124252943D01*
X80488952Y-124316727D01*
X80479584Y-124326021D01*
X80479689Y-124326126D01*
X80475864Y-124329950D01*
X80475861Y-124329953D01*
X80428812Y-124377002D01*
X80314951Y-124490862D01*
X80184432Y-124677265D01*
X80184431Y-124677267D01*
X80088261Y-124883502D01*
X80088258Y-124883511D01*
X80029366Y-125103302D01*
X80029364Y-125103312D01*
X80014500Y-125273216D01*
X80014500Y-126186784D01*
X80029364Y-126356687D01*
X80029366Y-126356697D01*
X80088258Y-126576488D01*
X80088261Y-126576497D01*
X80184431Y-126782732D01*
X80184432Y-126782734D01*
X80314954Y-126969141D01*
X80475858Y-127130045D01*
X80475861Y-127130047D01*
X80662266Y-127260568D01*
X80718776Y-127286919D01*
X80771215Y-127333092D01*
X80790367Y-127400285D01*
X80786146Y-127431394D01*
X80729366Y-127643302D01*
X80729364Y-127643312D01*
X80714500Y-127813216D01*
X80714500Y-128726784D01*
X80729364Y-128896687D01*
X80729366Y-128896697D01*
X80788258Y-129116488D01*
X80788261Y-129116497D01*
X80884431Y-129322732D01*
X80884432Y-129322734D01*
X81014954Y-129509141D01*
X81175858Y-129670045D01*
X81175861Y-129670047D01*
X81362266Y-129800568D01*
X81568504Y-129896739D01*
X81568509Y-129896740D01*
X81568511Y-129896741D01*
X81695338Y-129930724D01*
X81754999Y-129967089D01*
X81785528Y-130029936D01*
X81777233Y-130099311D01*
X81732748Y-130153189D01*
X81666196Y-130174464D01*
X81663245Y-130174499D01*
X80682442Y-130174499D01*
X80677576Y-130174308D01*
X80623084Y-130170019D01*
X80482430Y-130157713D01*
X80464291Y-130154759D01*
X80384003Y-130135484D01*
X80273279Y-130105815D01*
X80265592Y-130103205D01*
X80179037Y-130067354D01*
X80080045Y-130021192D01*
X80073847Y-130017862D01*
X79993238Y-129968465D01*
X79990071Y-129966388D01*
X79903409Y-129905707D01*
X79898702Y-129902063D01*
X79826161Y-129840107D01*
X79822585Y-129836801D01*
X79748197Y-129762413D01*
X79744891Y-129758837D01*
X79722546Y-129732675D01*
X79682935Y-129686296D01*
X79679291Y-129681589D01*
X79618610Y-129594927D01*
X79616533Y-129591760D01*
X79616529Y-129591754D01*
X79567134Y-129511148D01*
X79563811Y-129504964D01*
X79517650Y-129405972D01*
X79481790Y-129319398D01*
X79479183Y-129311718D01*
X79449515Y-129200996D01*
X79430236Y-129120695D01*
X79427286Y-129102574D01*
X79414987Y-128962000D01*
X79410689Y-128907399D01*
X79410500Y-128902585D01*
X79410500Y-79377435D01*
X79410691Y-79372571D01*
X79414984Y-79318023D01*
X79427286Y-79177416D01*
X79430234Y-79159307D01*
X79449517Y-79078988D01*
X79479183Y-78968279D01*
X79481790Y-78960598D01*
X79517649Y-78874026D01*
X79563813Y-78775028D01*
X79567127Y-78768860D01*
X79616562Y-78688190D01*
X79618587Y-78685102D01*
X79679316Y-78598372D01*
X79682908Y-78593733D01*
X79744914Y-78521133D01*
X79748149Y-78517634D01*
X79822634Y-78443149D01*
X79826133Y-78439914D01*
X79898733Y-78377908D01*
X79903372Y-78374316D01*
X79990102Y-78313587D01*
X79993190Y-78311562D01*
X80073860Y-78262127D01*
X80080028Y-78258813D01*
X80179026Y-78212649D01*
X80265599Y-78176789D01*
X80273285Y-78174181D01*
X80275617Y-78173556D01*
X80383984Y-78144518D01*
X80464307Y-78125234D01*
X80482416Y-78122286D01*
X80623023Y-78109984D01*
X80677572Y-78105690D01*
X80682437Y-78105500D01*
X85073136Y-78105500D01*
X85073139Y-78105501D01*
G37*
%TD.AperFunction*%
M02*
