M48
; DRILL file {KiCad 7.0.9} date Sun Jan 28 12:44:52 2024
; FORMAT={-:-/ absolute / inch / decimal}
; #@! TF.CreationDate,2024-01-28T12:44:52+11:00
; #@! TF.GenerationSoftware,Kicad,Pcbnew,7.0.9
; #@! TF.FileFunction,Plated,1,2,PTH
FMAT,2
INCH
; #@! TA.AperFunction,Plated,PTH,ComponentDrill
T1C0.0394
; #@! TA.AperFunction,Plated,PTH,ComponentDrill
T2C0.0402
; #@! TA.AperFunction,Plated,PTH,ComponentDrill
T3C0.0433
%
G90
G05
T1
X3.4557Y-4.4486
X3.4557Y-4.5486
X3.4557Y-4.6486
X3.4557Y-4.7486
X3.4557Y-4.8486
X3.4557Y-4.9486
T2
X3.2014Y-3.15
X3.2014Y-3.45
X3.2014Y-3.65
X3.2014Y-3.85
X3.2014Y-3.95
X3.2014Y-4.05
X3.2014Y-4.15
X3.2014Y-4.25
X3.2014Y-4.45
X3.2014Y-4.55
T3
G00X3.1876Y-3.3343
M15
G01X3.1876Y-3.3657
M16
G05
G00X3.2014Y-4.6343
M15
G01X3.2014Y-4.6657
M16
G05
G00X3.2014Y-4.9343
M15
G01X3.2014Y-4.9657
M16
G05
G00X3.2152Y-3.2343
M15
G01X3.2152Y-3.2657
M16
G05
G00X3.2152Y-3.5343
M15
G01X3.2152Y-3.5657
M16
G05
G00X3.2152Y-3.7343
M15
G01X3.2152Y-3.7657
M16
G05
G00X3.2152Y-4.3343
M15
G01X3.2152Y-4.3657
M16
G05
G00X3.2152Y-4.8343
M15
G01X3.2152Y-4.8657
M16
G05
G00X3.2289Y-4.7343
M15
G01X3.2289Y-4.7657
M16
G05
G00X3.2289Y-5.0343
M15
G01X3.2289Y-5.0657
M16
G05
T0
M30
